<svg width="191" height="32" viewBox="0 0 191 32" fill="none" xmlns="http://www.w3.org/2000/svg">
<path d="M90.122 1.432C83.99 1.432 78.488 5.002 78.488 11.26C78.488 15.418 81.638 17.392 86.678 18.652C90.248 19.576 91.718 20.92 91.718 22.894C91.718 25.624 89.324 27.262 86.3 27.262C83.318 27.262 81.176 25.624 81.092 22.432H75.212C74.708 28.522 79.034 31.588 85.586 31.588C92.264 31.588 98.018 28.06 98.018 21.802C98.018 17.812 95.498 15.25 90.164 13.948C86.258 12.982 84.746 11.848 84.746 9.874C84.746 7.228 86.72 5.758 89.366 5.758C92.39 5.758 93.86 7.606 93.692 10.546H99.572C99.866 5.38 97.01 1.432 90.122 1.432ZM108.713 0.339999C106.403 0.339999 105.101 2.062 105.101 3.868C105.101 5.464 106.151 6.472 107.873 6.472C110.183 6.472 111.485 4.75 111.485 2.944C111.485 1.39 110.435 0.339999 108.713 0.339999ZM106.193 31L110.141 8.656H104.387L100.397 31H106.193ZM122.6 0.129999H116.804L112.604 23.818C112.184 26.002 112.016 27.22 112.016 28.186C112.016 30.496 113.528 31.294 116.384 31.294C117.686 31.294 118.736 31.252 119.744 31.084L120.416 27.346C118.778 27.472 118.106 27.22 118.106 25.918C118.106 25.372 118.232 24.7 118.4 23.692L122.6 0.129999ZM134.371 0.129999H128.575L124.375 23.818C123.955 26.002 123.787 27.22 123.787 28.186C123.787 30.496 125.299 31.294 128.155 31.294C129.457 31.294 130.507 31.252 131.515 31.084L132.187 27.346C130.549 27.472 129.877 27.22 129.877 25.918C129.877 25.372 130.003 24.7 130.171 23.692L134.371 0.129999ZM148.647 8.068C143.187 8.068 138.819 10.924 137.853 15.964L143.481 15.922C144.069 13.486 145.497 12.142 148.143 12.142C150.201 12.142 150.957 13.276 150.957 14.662C150.957 15.334 150.873 16.048 150.705 17.056L150.663 17.392C141.423 16.846 135.501 19.996 135.501 25.708C135.501 29.698 138.357 31.588 141.717 31.588C143.943 31.588 145.917 31.084 147.387 29.95L148.857 27.724L148.731 31H154.401C154.527 28.522 154.695 27.01 154.989 25.33L156.249 18.19C156.585 16.342 156.795 15.124 156.795 13.99C156.795 10.546 154.527 8.068 148.647 8.068ZM144.531 27.514C142.767 27.514 141.591 26.674 141.591 24.952C141.591 21.76 145.287 20.374 149.991 20.878L149.655 22.768C149.151 25.708 146.631 27.514 144.531 27.514ZM181.572 1.432C175.398 1.432 170.736 4.918 169.728 10.714H175.566C176.238 7.312 178.086 5.758 180.522 5.758C182.622 5.758 183.84 6.808 183.84 8.782C183.84 10.882 182.874 12.394 179.136 15.88C176.49 18.4 175.482 19.828 174.894 22.726H179.892C180.564 20.584 181.53 19.45 184.05 17.434C188.502 13.906 190.056 11.638 190.056 7.984C190.056 3.994 186.99 1.432 181.572 1.432ZM176.994 25.036C174.6 25.036 173.172 26.884 173.172 28.858C173.172 30.538 174.264 31.588 176.07 31.588C178.464 31.588 179.892 29.698 179.892 27.766C179.892 26.128 178.8 25.036 176.994 25.036Z" fill="#333333"/>
<path d="M10.4992 6.556H25.1572L25.9552 2.02H5.50123L0.377227 31H21.2512L22.0912 26.422H6.97123L8.31523 18.778H22.0072L22.8052 14.2H9.15523L10.4992 6.556ZM38.946 8.152C30.672 8.152 25.59 14.662 25.59 22.348C25.59 28.69 29.622 31.588 35.124 31.588C41.13 31.588 44.952 28.774 47.01 23.272H41.214C40.206 26.086 38.232 27.514 35.67 27.514C33.444 27.514 31.764 25.834 31.764 22.348C31.764 16.678 34.368 12.226 38.316 12.226C40.836 12.226 42.264 13.696 42.348 16.804H48.06C48.06 11.722 45.246 8.152 38.946 8.152ZM63.1492 8.068C53.9932 8.068 49.7092 14.998 49.7092 21.676C49.7092 27.22 52.9852 31.588 60.0832 31.588C69.1972 31.588 73.4812 24.658 73.4812 17.98C73.4812 12.436 70.2472 8.068 63.1492 8.068ZM60.5872 27.514C57.3532 27.514 55.8832 24.91 55.8832 21.55C55.8832 16.93 58.1512 12.142 62.6452 12.142C65.8792 12.142 67.3492 14.746 67.3492 18.106C67.3492 22.726 65.0392 27.514 60.5872 27.514Z" fill="#00AB28"/>
</svg>
