<svg width="417" height="70" viewBox="0 0 417 70" fill="none" xmlns="http://www.w3.org/2000/svg">
<path d="M23.0697 14.456H55.1777L56.9257 4.51999H12.1217L0.897734 68H46.6217L48.4617 57.972H15.3417L18.2857 41.228H48.2777L50.0257 31.2H20.1257L23.0697 14.456ZM85.3818 17.952C67.2578 17.952 56.1258 32.212 56.1258 49.048C56.1258 62.94 64.9578 69.288 77.0098 69.288C90.1658 69.288 98.5378 63.124 103.046 51.072H90.3498C88.1418 57.236 83.8178 60.364 78.2058 60.364C73.3298 60.364 69.6498 56.684 69.6498 49.048C69.6498 36.628 75.3538 26.876 84.0018 26.876C89.5218 26.876 92.6498 30.096 92.8338 36.904H105.346C105.346 25.772 99.1818 17.952 85.3818 17.952ZM138.398 17.768C118.342 17.768 108.958 32.948 108.958 47.576C108.958 59.72 116.134 69.288 131.682 69.288C151.646 69.288 161.03 54.108 161.03 39.48C161.03 27.336 153.946 17.768 138.398 17.768ZM132.786 60.364C125.702 60.364 122.482 54.66 122.482 47.3C122.482 37.18 127.45 26.692 137.294 26.692C144.378 26.692 147.598 32.396 147.598 39.756C147.598 49.876 142.538 60.364 132.786 60.364ZM197.482 3.23199C184.05 3.23199 171.998 11.052 171.998 24.76C171.998 33.868 178.898 38.192 189.938 40.952C197.758 42.976 200.978 45.92 200.978 50.244C200.978 56.224 195.734 59.812 189.11 59.812C182.578 59.812 177.886 56.224 177.702 49.232H164.822C163.718 62.572 173.194 69.288 187.546 69.288C202.174 69.288 214.778 61.56 214.778 47.852C214.778 39.112 209.258 33.5 197.574 30.648C189.018 28.532 185.706 26.048 185.706 21.724C185.706 15.928 190.03 12.708 195.826 12.708C202.45 12.708 205.67 16.756 205.302 23.196H218.182C218.826 11.88 212.57 3.23199 197.482 3.23199ZM238.204 0.839998C233.144 0.839998 230.292 4.612 230.292 8.568C230.292 12.064 232.592 14.272 236.364 14.272C241.424 14.272 244.276 10.5 244.276 6.544C244.276 3.14 241.976 0.839998 238.204 0.839998ZM232.684 68L241.332 19.056H228.728L219.988 68H232.684ZM268.623 0.379999H255.927L246.727 52.268C245.807 57.052 245.439 59.72 245.439 61.836C245.439 66.896 248.751 68.644 255.007 68.644C257.859 68.644 260.159 68.552 262.367 68.184L263.839 59.996C260.251 60.272 258.779 59.72 258.779 56.868C258.779 55.672 259.055 54.2 259.423 51.992L268.623 0.379999ZM294.409 0.379999H281.713L272.513 52.268C271.593 57.052 271.225 59.72 271.225 61.836C271.225 66.896 274.537 68.644 280.793 68.644C283.645 68.644 285.945 68.552 288.153 68.184L289.625 59.996C286.037 60.272 284.565 59.72 284.565 56.868C284.565 55.672 284.841 54.2 285.209 51.992L294.409 0.379999ZM325.679 17.768C313.719 17.768 304.151 24.024 302.035 35.064L314.363 34.972C315.651 29.636 318.779 26.692 324.575 26.692C329.083 26.692 330.739 29.176 330.739 32.212C330.739 33.684 330.555 35.248 330.187 37.456L330.095 38.192C309.855 36.996 296.883 43.896 296.883 56.408C296.883 65.148 303.139 69.288 310.499 69.288C315.375 69.288 319.699 68.184 322.919 65.7L326.139 60.824L325.863 68H338.283C338.559 62.572 338.927 59.26 339.571 55.58L342.331 39.94C343.067 35.892 343.527 33.224 343.527 30.74C343.527 23.196 338.559 17.768 325.679 17.768ZM316.663 60.364C312.799 60.364 310.223 58.524 310.223 54.752C310.223 47.76 318.319 44.724 328.623 45.828L327.887 49.968C326.783 56.408 321.263 60.364 316.663 60.364ZM397.802 3.23199C384.278 3.23199 374.066 10.868 371.858 23.564H384.646C386.118 16.112 390.166 12.708 395.502 12.708C400.102 12.708 402.77 15.008 402.77 19.332C402.77 23.932 400.654 27.244 392.466 34.88C386.67 40.4 384.462 43.528 383.174 49.876H394.122C395.594 45.184 397.71 42.7 403.23 38.284C412.982 30.556 416.386 25.588 416.386 17.584C416.386 8.844 409.67 3.23199 397.802 3.23199ZM387.774 54.936C382.53 54.936 379.402 58.984 379.402 63.308C379.402 66.988 381.794 69.288 385.75 69.288C390.994 69.288 394.122 65.148 394.122 60.916C394.122 57.328 391.73 54.936 387.774 54.936Z" fill="#333333"/>
</svg>
