<svg width="98" height="21" viewBox="0 0 98 21" fill="none" xmlns="http://www.w3.org/2000/svg">
<path d="M6.44944 4.868H15.5234L16.0174 2.06H3.35544L0.183438 20H13.1054L13.6254 17.166H4.26544L5.09744 12.434H13.5734L14.0674 9.6H5.61744L6.44944 4.868ZM24.0594 5.856C18.9374 5.856 15.7914 9.886 15.7914 14.644C15.7914 18.57 18.2874 20.364 21.6934 20.364C25.4114 20.364 27.7774 18.622 29.0514 15.216H25.4634C24.8394 16.958 23.6174 17.842 22.0314 17.842C20.6534 17.842 19.6134 16.802 19.6134 14.644C19.6134 11.134 21.2254 8.378 23.6694 8.378C25.2294 8.378 26.1134 9.288 26.1654 11.212H29.7014C29.7014 8.066 27.9594 5.856 24.0594 5.856ZM39.0423 5.804C33.3743 5.804 30.7223 10.094 30.7223 14.228C30.7223 17.66 32.7503 20.364 37.1443 20.364C42.7863 20.364 45.4383 16.074 45.4383 11.94C45.4383 8.508 43.4363 5.804 39.0423 5.804ZM37.4563 17.842C35.4543 17.842 34.5443 16.23 34.5443 14.15C34.5443 11.29 35.9483 8.326 38.7303 8.326C40.7323 8.326 41.6423 9.938 41.6423 12.018C41.6423 14.878 40.2123 17.842 37.4563 17.842Z" fill="white"/>
<path d="M55.7398 1.696C51.9438 1.696 48.5378 3.906 48.5378 7.78C48.5378 10.354 50.4878 11.576 53.6078 12.356C55.8178 12.928 56.7278 13.76 56.7278 14.982C56.7278 16.672 55.2458 17.686 53.3738 17.686C51.5278 17.686 50.2018 16.672 50.1498 14.696H46.5098C46.1978 18.466 48.8758 20.364 52.9318 20.364C57.0658 20.364 60.6278 18.18 60.6278 14.306C60.6278 11.836 59.0678 10.25 55.7658 9.444C53.3478 8.846 52.4118 8.144 52.4118 6.922C52.4118 5.284 53.6338 4.374 55.2718 4.374C57.1438 4.374 58.0538 5.518 57.9498 7.338H61.5898C61.7718 4.14 60.0038 1.696 55.7398 1.696ZM67.2482 1.02C65.8182 1.02 65.0122 2.086 65.0122 3.204C65.0122 4.192 65.6622 4.816 66.7282 4.816C68.1582 4.816 68.9642 3.75 68.9642 2.632C68.9642 1.67 68.3142 1.02 67.2482 1.02ZM65.6882 20L68.1322 6.168H64.5702L62.1002 20H65.6882ZM75.8451 0.89H72.2571L69.6571 15.554C69.3971 16.906 69.2931 17.66 69.2931 18.258C69.2931 19.688 70.2291 20.182 71.9971 20.182C72.8031 20.182 73.4531 20.156 74.0771 20.052L74.4931 17.738C73.4791 17.816 73.0631 17.66 73.0631 16.854C73.0631 16.516 73.1411 16.1 73.2451 15.476L75.8451 0.89ZM83.1322 0.89H79.5442L76.9442 15.554C76.6842 16.906 76.5802 17.66 76.5802 18.258C76.5802 19.688 77.5162 20.182 79.2842 20.182C80.0902 20.182 80.7402 20.156 81.3642 20.052L81.7802 17.738C80.7662 17.816 80.3502 17.66 80.3502 16.854C80.3502 16.516 80.4282 16.1 80.5322 15.476L83.1322 0.89ZM91.9695 5.804C88.5895 5.804 85.8855 7.572 85.2875 10.692L88.7715 10.666C89.1355 9.158 90.0195 8.326 91.6575 8.326C92.9315 8.326 93.3995 9.028 93.3995 9.886C93.3995 10.302 93.3475 10.744 93.2435 11.368L93.2175 11.576C87.4975 11.238 83.8315 13.188 83.8315 16.724C83.8315 19.194 85.5995 20.364 87.6795 20.364C89.0575 20.364 90.2795 20.052 91.1895 19.35L92.0995 17.972L92.0215 20H95.5315C95.6095 18.466 95.7135 17.53 95.8955 16.49L96.6755 12.07C96.8835 10.926 97.0135 10.172 97.0135 9.47C97.0135 7.338 95.6095 5.804 91.9695 5.804ZM89.4215 17.842C88.3295 17.842 87.6015 17.322 87.6015 16.256C87.6015 14.28 89.8895 13.422 92.8015 13.734L92.5935 14.904C92.2815 16.724 90.7215 17.842 89.4215 17.842Z" fill="#219653"/>
</svg>
