<svg width="57" height="13" viewBox="0 0 57 13" fill="none" xmlns="http://www.w3.org/2000/svg">
<path d="M4.14 3.27H9.375L9.66 1.65H2.355L0.525 12H7.98L8.28 10.365H2.88L3.36 7.635H8.25L8.535 6H3.66L4.14 3.27ZM14.2996 3.84C11.3446 3.84 9.52957 6.165 9.52957 8.91C9.52957 11.175 10.9696 12.21 12.9346 12.21C15.0796 12.21 16.4446 11.205 17.1796 9.24H15.1096C14.7496 10.245 14.0446 10.755 13.1296 10.755C12.3346 10.755 11.7346 10.155 11.7346 8.91C11.7346 6.885 12.6646 5.295 14.0746 5.295C14.9746 5.295 15.4846 5.82 15.5146 6.93H17.5546C17.5546 5.115 16.5496 3.84 14.2996 3.84ZM22.9436 3.81C19.6736 3.81 18.1436 6.285 18.1436 8.67C18.1436 10.65 19.3136 12.21 21.8486 12.21C25.1036 12.21 26.6336 9.735 26.6336 7.35C26.6336 5.37 25.4786 3.81 22.9436 3.81ZM22.0286 10.755C20.8736 10.755 20.3486 9.825 20.3486 8.625C20.3486 6.975 21.1586 5.265 22.7636 5.265C23.9186 5.265 24.4436 6.195 24.4436 7.395C24.4436 9.045 23.6186 10.755 22.0286 10.755ZM32.5767 1.44C30.3867 1.44 28.4217 2.715 28.4217 4.95C28.4217 6.435 29.5467 7.14 31.3467 7.59C32.6217 7.92 33.1467 8.4 33.1467 9.105C33.1467 10.08 32.2917 10.665 31.2117 10.665C30.1467 10.665 29.3817 10.08 29.3517 8.94H27.2517C27.0717 11.115 28.6167 12.21 30.9567 12.21C33.3417 12.21 35.3967 10.95 35.3967 8.715C35.3967 7.29 34.4967 6.375 32.5917 5.91C31.1967 5.565 30.6567 5.16 30.6567 4.455C30.6567 3.51 31.3617 2.985 32.3067 2.985C33.3867 2.985 33.9117 3.645 33.8517 4.695H35.9517C36.0567 2.85 35.0367 1.44 32.5767 1.44ZM39.2162 1.05C38.3912 1.05 37.9262 1.665 37.9262 2.31C37.9262 2.88 38.3012 3.24 38.9162 3.24C39.7412 3.24 40.2062 2.625 40.2062 1.98C40.2062 1.425 39.8312 1.05 39.2162 1.05ZM38.3162 12L39.7262 4.02H37.6712L36.2462 12H38.3162ZM44.1759 0.975H42.1059L40.6059 9.435C40.4559 10.215 40.3959 10.65 40.3959 10.995C40.3959 11.82 40.9359 12.105 41.9559 12.105C42.4209 12.105 42.7959 12.09 43.1559 12.03L43.3959 10.695C42.8109 10.74 42.5709 10.65 42.5709 10.185C42.5709 9.99 42.6159 9.75 42.6759 9.39L44.1759 0.975ZM48.38 0.975H46.31L44.81 9.435C44.66 10.215 44.6 10.65 44.6 10.995C44.6 11.82 45.14 12.105 46.16 12.105C46.625 12.105 47 12.09 47.36 12.03L47.6 10.695C47.015 10.74 46.775 10.65 46.775 10.185C46.775 9.99 46.82 9.75 46.88 9.39L48.38 0.975ZM53.4785 3.81C51.5285 3.81 49.9685 4.83 49.6235 6.63L51.6335 6.615C51.8435 5.745 52.3535 5.265 53.2985 5.265C54.0335 5.265 54.3035 5.67 54.3035 6.165C54.3035 6.405 54.2735 6.66 54.2135 7.02L54.1985 7.14C50.8985 6.945 48.7835 8.07 48.7835 10.11C48.7835 11.535 49.8035 12.21 51.0035 12.21C51.7985 12.21 52.5035 12.03 53.0285 11.625L53.5535 10.83L53.5085 12H55.5335C55.5785 11.115 55.6385 10.575 55.7435 9.975L56.1935 7.425C56.3135 6.765 56.3885 6.33 56.3885 5.925C56.3885 4.695 55.5785 3.81 53.4785 3.81ZM52.0085 10.755C51.3785 10.755 50.9585 10.455 50.9585 9.84C50.9585 8.7 52.2785 8.205 53.9585 8.385L53.8385 9.06C53.6585 10.11 52.7585 10.755 52.0085 10.755Z" fill="#333333" fill-opacity="0.8"/>
</svg>
