<svg width="43" height="51" viewBox="0 0 43 51" fill="none" xmlns="http://www.w3.org/2000/svg">
<path d="M23.8199 26.8611C24.0516 27.0961 24.2629 27.3054 24.5018 27.6502C24.6998 27.9361 25.0924 28.0072 25.3783 27.8091C25.6643 27.611 25.7354 27.2186 25.5372 26.9326C25.2483 26.5157 24.999 26.2623 24.7171 25.9767C23.7595 25.0054 22.3123 23.5374 22.1472 20.9516C22.1246 20.5991 21.8795 20.3038 21.5374 20.2167C21.1953 20.1296 20.8394 20.2719 20.6513 20.5704C20.5505 20.7305 20.4405 20.9031 20.3236 21.0866C18.8863 23.3431 16.4805 27.1199 16.4805 30.1863C16.4805 33.1805 19.099 35.5475 22.1445 35.1678C24.687 34.8509 26.5289 32.7003 26.5242 30.0541C26.5235 29.7066 26.2417 29.4254 25.8943 29.4254C25.5461 29.4254 25.2638 29.708 25.2645 30.0565C25.2675 31.772 24.1432 33.6492 21.9886 33.9178C19.652 34.209 17.7401 32.3847 17.7401 30.1863C17.7401 27.6912 19.6902 24.4411 21.0623 22.2729C21.5644 24.5732 22.9445 25.9731 23.8199 26.8611Z" fill="url(#paint0_linear)"/>
<g filter="url(#filter0_d)">
<path d="M20.5581 43.443C20.6679 43.443 20.649 43.4408 21.5006 43.2125L35.4414 46.9479C36.2501 47.1646 37.0783 46.6848 37.2944 45.8782L37.9394 43.4711C37.971 43.3531 37.9882 43.2334 37.9911 43.1143C38.9776 43.0841 39.7708 42.2722 39.7708 41.2785V39.4341C39.7708 38.4388 38.9751 37.6259 37.9864 37.5981C37.9847 37.4738 37.9678 37.3478 37.9342 37.2223L37.2994 34.8535C37.0807 34.0372 36.2384 33.5511 35.4221 33.7697L29.5829 35.3343C31.5925 33.2414 32.6946 30.5063 32.6946 27.5902C32.6946 25.6135 31.5741 22.2043 29.3642 17.4578C28.9631 16.5963 27.8054 16.4364 27.1861 17.1607C27.0751 17.2905 26.9614 17.4192 26.8456 17.5462C27.4613 15.4341 27.2419 13.104 26.1746 11.0942C24.6005 8.1293 23.1755 5.64507 22.4663 4.42815C22.2715 4.09389 21.8885 3.93265 21.5138 4.02637C21.1381 4.12052 20.8762 4.44419 20.8621 4.83161C20.7011 9.25459 18.9137 13.4389 15.829 16.6136L14.6331 17.8443C14.3907 18.0938 14.3965 18.4926 14.6459 18.735C14.8953 18.9773 15.2942 18.9716 15.5366 18.7222L16.7324 17.4915C19.7283 14.4081 21.5813 10.435 22.0283 6.18869C22.7971 7.53092 23.8878 9.47328 25.0622 11.6848C26.2369 13.8966 26.2596 16.647 24.8529 18.9487C24.6399 19.2953 24.708 19.7397 25.0153 20.0053C25.3225 20.2712 25.7724 20.2747 26.0847 20.014C26.8263 19.3951 27.5156 18.7141 28.1439 17.9791C28.1494 17.9726 28.1611 17.9586 28.1866 17.9625C28.2115 17.9659 28.2186 17.9812 28.2225 17.9894C30.8778 23.6927 31.4352 26.3582 31.4352 27.59C31.4352 31.2673 29.4542 34.4395 26.5275 36.1625C26.4919 36.179 26.4584 36.1986 26.4272 36.2207C24.9133 37.0881 23.1407 37.5671 21.2406 37.5186C15.9089 37.3812 11.5712 32.8759 11.5712 27.4754C11.5712 25.1055 12.2883 22.8262 13.645 20.8835C13.8441 20.5983 13.7744 20.2057 13.4892 20.0066C13.2041 19.8073 12.8115 19.8771 12.6122 20.1623C9.43592 24.7104 9.3867 31.0842 13.475 35.3464C13.4832 35.3548 13.7417 35.4208 8.91858 34.1285C8.111 33.9119 7.282 34.3903 7.06557 35.1982L6.42276 37.5971H5.06727C4.05443 37.5971 3.23047 38.4211 3.23047 39.4339V41.2782C3.23047 42.2733 4.02588 43.0861 5.01428 43.1143C5.01621 43.2396 5.03368 43.3657 5.06702 43.49L5.70176 45.8588C5.91987 46.6726 6.76012 47.162 7.57913 46.9426L17.7887 44.207C18.1248 44.117 18.3241 43.7715 18.2341 43.4355C18.1441 43.0995 17.7989 42.8998 17.4626 42.9901L7.25311 45.7261C7.10731 45.7655 6.95748 45.6784 6.9186 45.533L6.28385 43.1641C6.24488 43.0188 6.33147 42.8687 6.47701 42.8297C29.988 36.53 14.377 40.7129 21.5847 38.7816C23.5312 38.7684 25.3993 38.262 27.0486 37.3176L35.7483 34.9865C35.8934 34.9477 36.044 35.0341 36.0828 35.1797L36.7175 37.5484C36.7566 37.6939 36.6699 37.844 36.5244 37.8829C30.9473 39.3773 26.2776 40.6285 20.3954 42.2046C20.0594 42.2946 19.86 42.6401 19.9501 42.9761C20.0256 43.2574 20.28 43.443 20.5581 43.443ZM7.63733 37.9316L8.28241 35.5244C8.31911 35.3874 8.45944 35.3098 8.59247 35.3454L16.0209 37.3358C16.7657 37.7606 17.5559 38.0962 18.3777 38.3367L13.2743 39.7041L7.81647 38.2417C7.68302 38.206 7.60071 38.0682 7.63733 37.9316ZM4.49022 41.2785V39.4341C4.49022 39.1159 4.74906 38.8571 5.06727 38.8571H6.63692C6.84058 39.1529 7.13956 39.3646 7.49027 39.4585L10.8407 40.3562L6.15082 41.6129C5.96488 41.6627 5.79322 41.7452 5.64239 41.8555H5.06727C4.74906 41.8555 4.49022 41.5967 4.49022 41.2785ZM36.7227 43.1449L36.0777 45.5521C36.0416 45.687 35.903 45.7674 35.7677 45.7312L23.9343 42.5605L29.7271 41.0083L36.5437 42.8348C36.6784 42.8709 36.759 43.0094 36.7227 43.1449ZM38.5112 39.4341V41.2785C38.5112 41.5967 38.2524 41.8555 37.9342 41.8555H37.369C37.2206 41.7477 37.0523 41.667 36.8699 41.6181L32.1607 40.3563L36.8507 39.0997C37.0388 39.0493 37.2094 38.9657 37.3578 38.8571H37.9343C38.2524 38.8571 38.5112 39.1159 38.5112 39.4341Z" fill="white"/>
</g>
<path d="M9.22485 37.6879C13.6058 38.8617 13.2716 38.7816 13.3897 38.7816C13.6679 38.7816 13.9224 38.596 13.9977 38.3146C14.0877 37.9786 13.8883 37.6331 13.5523 37.5431L9.55088 36.471C9.21477 36.3806 8.86943 36.5803 8.7794 36.9163C8.68945 37.2524 8.88883 37.5979 9.22485 37.6879Z" fill="url(#paint1_linear)"/>
<path d="M34.0544 43.4315L28.7931 42.0217C28.4569 41.9314 28.1117 42.1311 28.0216 42.4671C27.9316 42.8031 28.131 43.1485 28.467 43.2386L33.7283 44.6483C34.0636 44.7384 34.4096 44.5394 34.4998 44.2029C34.5898 43.8669 34.3904 43.5214 34.0544 43.4315Z" fill="url(#paint2_linear)"/>
<defs>
<filter id="filter0_d" x="-0.769531" y="0" width="44.5403" height="51" filterUnits="userSpaceOnUse" color-interpolation-filters="sRGB">
<feFlood flood-opacity="0" result="BackgroundImageFix"/>
<feColorMatrix in="SourceAlpha" type="matrix" values="0 0 0 0 0 0 0 0 0 0 0 0 0 0 0 0 0 0 127 0"/>
<feOffset/>
<feGaussianBlur stdDeviation="2"/>
<feColorMatrix type="matrix" values="0 0 0 0 1 0 0 0 0 1 0 0 0 0 1 0 0 0 0.7 0"/>
<feBlend mode="normal" in2="BackgroundImageFix" result="effect1_dropShadow"/>
<feBlend mode="normal" in="SourceGraphic" in2="effect1_dropShadow" result="shape"/>
</filter>
<linearGradient id="paint0_linear" x1="15.497" y1="11.7533" x2="35.0578" y2="21.7747" gradientUnits="userSpaceOnUse">
<stop stop-color="#FDC830"/>
<stop offset="1" stop-color="#F37335"/>
</linearGradient>
<linearGradient id="paint1_linear" x1="8.24263" y1="35.1379" x2="11.4908" y2="40.7477" gradientUnits="userSpaceOnUse">
<stop stop-color="#FDC830"/>
<stop offset="1" stop-color="#F37335"/>
</linearGradient>
<linearGradient id="paint2_linear" x1="27.3614" y1="40.4997" x2="30.9245" y2="47.1657" gradientUnits="userSpaceOnUse">
<stop stop-color="#FDC830"/>
<stop offset="1" stop-color="#F37335"/>
</linearGradient>
</defs>
</svg>
