<svg width="62" height="72" viewBox="0 0 62 72" fill="none" xmlns="http://www.w3.org/2000/svg">
<g filter="url(#filter0_i)">
<path d="M27.1 58.8002H56.5L53.9 72.0002H0.9L3 61.5002L34.9 36.5002C38.7667 33.3669 41.4333 30.7336 42.9 28.6002C44.4333 26.4669 45.2 24.2336 45.2 21.9002C45.2 19.5669 44.3 17.7002 42.5 16.3002C40.7667 14.9002 38.2333 14.2002 34.9 14.2002C32.1 14.2002 29.4 14.8336 26.8 16.1002C24.2 17.3669 21.9333 19.1669 20 21.5002L9.1 13.6002C11.9667 9.66691 15.9 6.56691 20.9 4.30024C25.9 1.96691 31.3667 0.800243 37.3 0.800243C42.1667 0.800243 46.4333 1.60024 50.1 3.20024C53.8333 4.80024 56.7 7.03357 58.7 9.90024C60.7667 12.7669 61.8 16.0002 61.8 19.6002C61.8 23.9336 60.6 28.0002 58.2 31.8002C55.8 35.6002 51.6333 39.8002 45.7 44.4002L27.1 58.8002Z" fill="#333333" fill-opacity="0.1"/>
</g>
<defs>
<filter id="filter0_i" x="0.900391" y="0.800293" width="60.9" height="75.2" filterUnits="userSpaceOnUse" color-interpolation-filters="sRGB">
<feFlood flood-opacity="0" result="BackgroundImageFix"/>
<feBlend mode="normal" in="SourceGraphic" in2="BackgroundImageFix" result="shape"/>
<feColorMatrix in="SourceAlpha" type="matrix" values="0 0 0 0 0 0 0 0 0 0 0 0 0 0 0 0 0 0 127 0" result="hardAlpha"/>
<feOffset dy="4"/>
<feGaussianBlur stdDeviation="2"/>
<feComposite in2="hardAlpha" operator="arithmetic" k2="-1" k3="1"/>
<feColorMatrix type="matrix" values="0 0 0 0 0 0 0 0 0 0 0 0 0 0 0 0 0 0 0.25 0"/>
<feBlend mode="normal" in2="shape" result="effect1_innerShadow"/>
</filter>
</defs>
</svg>
