<svg width="65" height="72" viewBox="0 0 65 72" fill="none" xmlns="http://www.w3.org/2000/svg">
<path d="M63 10.5L43.4 28.8C48.2667 29.9333 52.0333 32.0333 54.7 35.1C57.3667 38.1667 58.7 41.9667 58.7 46.5C58.7 51.2333 57.3 55.4667 54.5 59.2C51.7667 62.9333 47.9333 65.8667 43 68C38.0667 70.1333 32.4667 71.2 26.2 71.2C21.0667 71.2 16.2667 70.5 11.8 69.1C7.33333 67.7 3.6 65.7 0.6 63.1L8.4 51.2C10.7333 53.2 13.5333 54.7667 16.8 55.9C20.1333 57.0333 23.6333 57.6 27.3 57.6C32.1 57.6 35.8 56.7333 38.4 55C41 53.2 42.3 50.7 42.3 47.5C42.3 44.9667 41.3333 43.1 39.4 41.9C37.5333 40.6333 34.6667 40 30.8 40H23.4L25.5 29.3L42.9 13H13.3L16 -4.76837e-06H65L63 10.5Z" fill="#333333" fill-opacity="0.08"/>
</svg>
