<svg width="43" height="43" viewBox="0 0 43 43" fill="none" xmlns="http://www.w3.org/2000/svg">
<g clip-path="url(#clip0)">
<path d="M3.0139 2.87396C-0.30625 6.32262 0.37327 9.98604 0.37327 21.1154C0.37327 30.3576 -1.23927 39.6227 7.20017 41.8038C9.83551 42.4816 33.1857 42.4816 35.8175 41.8003C39.3313 40.8937 42.1902 38.0436 42.581 33.0739C42.6356 32.3803 42.6356 9.86281 42.5793 9.15513C42.1638 3.86155 38.9053 0.810751 34.6116 0.192845C33.6275 0.0502513 33.4304 0.00800129 28.3815 -0.000800796C10.4728 0.00800129 6.54705 -0.789468 3.0139 2.87396Z" fill="url(#paint0_linear)"/>
<path d="M21.4967 5.5258C15.1047 5.5258 9.03473 4.95718 6.71626 10.9074C5.7586 13.3649 5.89767 16.5566 5.89767 21.1266C5.89767 25.1368 5.76916 28.9059 6.71626 31.3441C9.02945 37.2978 15.1487 36.7274 21.4932 36.7274C27.6142 36.7274 33.9253 37.3647 36.2719 31.3441C37.2313 28.8619 37.0905 25.7178 37.0905 21.1266C37.0905 15.032 37.4267 11.0975 34.471 8.14354C31.4783 5.15083 27.4311 5.5258 21.4897 5.5258H21.4967ZM20.099 8.33718C33.4324 8.31606 35.1294 6.83379 34.1929 27.4254C33.8601 34.7082 28.3148 33.909 21.4985 33.909C9.06994 33.909 8.71258 33.5534 8.71258 21.1196C8.71258 8.54139 9.69841 8.34422 20.099 8.33366V8.33718ZM29.8235 10.9268C28.7901 10.9268 27.9522 11.7647 27.9522 12.7981C27.9522 13.8314 28.7901 14.6694 29.8235 14.6694C30.8569 14.6694 31.6948 13.8314 31.6948 12.7981C31.6948 11.7647 30.8569 10.9268 29.8235 10.9268ZM21.4967 13.115C17.0728 13.115 13.4868 16.7027 13.4868 21.1266C13.4868 25.5505 17.0728 29.1365 21.4967 29.1365C25.9207 29.1365 29.5049 25.5505 29.5049 21.1266C29.5049 16.7027 25.9207 13.115 21.4967 13.115ZM21.4967 15.9263C28.3712 15.9263 28.38 26.3269 21.4967 26.3269C14.6241 26.3269 14.6135 15.9263 21.4967 15.9263Z" fill="white"/>
</g>
<defs>
<linearGradient id="paint0_linear" x1="3.09491" y1="39.5506" x2="42.3618" y2="5.56559" gradientUnits="userSpaceOnUse">
<stop stop-color="#FFDD55"/>
<stop offset="0.5" stop-color="#FF543E"/>
<stop offset="1" stop-color="#C837AB"/>
</linearGradient>
<clipPath id="clip0">
<rect x="0.375" width="42.25" height="42.25" fill="white"/>
</clipPath>
</defs>
</svg>
