<svg width="94" height="94" viewBox="0 0 94 94" fill="none" xmlns="http://www.w3.org/2000/svg">
<circle cx="47" cy="47" r="47" fill="url(#paint0_linear)"/>
<g clip-path="url(#clip0)">
<path d="M68.8273 58.4259V56.9675C68.8273 56.547 68.4865 56.2058 68.0656 56.2058C67.645 56.2058 67.3039 56.547 67.3039 56.9675V58.1772C67.2511 58.1756 67.1983 58.1748 67.1452 58.1748H50.4445V52.594H67.3039V53.9036C67.3039 54.3241 67.645 54.6653 68.0656 54.6653C68.4865 54.6653 68.8273 54.3241 68.8273 53.9036V52.4456C68.8273 51.6875 68.2108 51.0706 67.4522 51.0706H60.7539V49.565C60.7539 46.3566 58.8753 44.244 55.0112 43.1066C54.9882 43.0999 54.9652 43.0939 54.9414 43.0896L47.3996 41.6228V40.032C47.6626 39.8503 47.9193 39.6519 48.1696 39.4365C49.5229 38.2713 50.3865 36.6026 50.6008 34.7769C51.6148 34.6622 52.4055 33.7997 52.4055 32.7555V31.4114C53.0644 31.1028 53.5215 30.4335 53.5215 29.6591C53.5215 28.7363 52.8716 27.9623 52.0056 27.7706V27.2874C52.0056 22.4461 48.0669 18.5078 43.226 18.5078H42.4972C39.6633 18.5078 36.989 19.8872 35.3426 22.1978C35.0986 22.5406 35.1783 23.0162 35.5211 23.2602C35.8639 23.5046 36.3391 23.4245 36.5831 23.0817C37.1838 22.2387 37.9503 21.5456 38.8199 21.0346V22.4763C38.8199 22.8972 39.1611 23.238 39.5816 23.238C40.0025 23.238 40.3433 22.8972 40.3433 22.4763V20.3597C40.9241 20.1784 41.5299 20.0693 42.1477 20.0396V24.2957C42.1477 24.7162 42.4884 25.0574 42.9094 25.0574C43.3299 25.0574 43.6711 24.7162 43.6711 24.2957V20.0447C44.2622 20.0804 44.8347 20.1876 45.3798 20.3574V22.4763C45.3798 22.8972 45.7206 23.238 46.1415 23.238C46.5621 23.238 46.9032 22.8972 46.9032 22.4763V21.0334C49.0432 22.2966 50.4821 24.627 50.4821 27.287V27.725H35.241V27.287C35.241 26.7138 35.308 26.1437 35.4402 25.5918C35.5377 25.1828 35.2854 24.7718 34.8764 24.6738C34.4666 24.5754 34.0564 24.8285 33.9584 25.2375C33.7985 25.9052 33.7176 26.5947 33.7176 27.287V27.7706C32.8515 27.9623 32.2017 28.7363 32.2017 29.6591C32.2017 30.4331 32.6591 31.1028 33.3176 31.4114V32.7555C33.3176 33.7993 34.1083 34.6622 35.1224 34.7765C35.3366 36.6026 36.2007 38.2713 37.5535 39.4365C37.8039 39.6519 38.0605 39.8503 38.3236 40.0316V41.6228L30.7818 43.0892C30.758 43.0939 30.7349 43.0995 30.7119 43.1062C26.8478 44.244 24.9693 46.3566 24.9693 49.565V58.4255C22.6151 59.1468 20.8984 61.3407 20.8984 63.9282C20.8984 67.1004 23.4792 69.6815 26.6518 69.6815H67.1452C70.3174 69.6815 72.8985 67.1004 72.8985 63.9282C72.8985 61.3407 71.1819 59.1468 68.8273 58.4259ZM55.1108 44.7348C57.9541 45.6925 59.2304 47.1981 59.2304 49.565V51.0706H55.1108V44.7348ZM33.7251 29.6591C33.7251 29.4325 33.9092 29.2485 34.1353 29.2485H51.5878C51.8144 29.2485 51.9984 29.4329 51.9984 29.6591C51.9984 29.8852 51.814 30.0693 51.5878 30.0693H34.1353C33.9092 30.0693 33.7251 29.8856 33.7251 29.6591ZM36.5946 34.0116C36.5855 33.5974 36.2475 33.2661 35.8329 33.2661H35.3517C35.0704 33.2661 34.8411 33.0372 34.8411 32.7555V31.5931H50.882V32.7555C50.882 33.0372 50.6531 33.2661 50.3715 33.2661H49.8902C49.476 33.2661 49.1376 33.5974 49.1289 34.0116C49.0928 35.6878 48.3811 37.2441 47.1758 38.282C45.9202 39.3631 44.4689 39.9213 42.8618 39.9411C41.2546 39.9213 39.8034 39.3631 38.5477 38.282C37.3425 37.2441 36.6303 35.6878 36.5946 34.0116ZM45.8761 40.8627V42.2509C45.8761 43.9128 44.5237 45.2652 42.8618 45.2652C41.1995 45.2652 39.847 43.9132 39.847 42.2509V40.8627C40.7877 41.2507 41.7922 41.4526 42.853 41.4646H42.8701C43.931 41.4526 44.9355 41.2511 45.8761 40.8627ZM35.8313 43.6597L38.4148 43.157C38.8358 45.2267 40.6698 46.7887 42.8618 46.7887C45.0537 46.7887 46.8874 45.2267 47.3087 43.157L49.8918 43.6597V47.9606C49.8918 48.3772 49.5526 48.716 49.136 48.716H36.5875C36.1705 48.716 35.8317 48.3772 35.8317 47.9606V43.6597H35.8313ZM32.1358 44.3781L34.3083 43.9556V47.9606C34.3083 49.2174 35.3307 50.2394 36.5875 50.2394H49.136C50.3925 50.2394 51.4152 49.2174 51.4152 47.9606V43.9556L53.5873 44.3781V51.0706H50.2965C49.5379 51.0706 48.921 51.6875 48.921 52.4456V58.1748H32.1358V44.3781ZM26.4931 49.565C26.4931 47.1981 27.769 45.6925 30.6124 44.7348V51.0706H26.4931V49.565ZM26.4931 52.594H30.6124V58.1748H26.6518C26.5986 58.1748 26.5455 58.1756 26.4931 58.1772V52.594ZM67.1452 68.1581H26.6518C24.3194 68.1581 22.4219 66.2605 22.4219 63.9282C22.4219 61.5958 24.3194 59.6982 26.6518 59.6982H67.1452C69.4775 59.6982 71.3751 61.5958 71.3751 63.9282C71.3751 66.2605 69.4775 68.1581 67.1452 68.1581Z" fill="white"/>
<path d="M67.1455 61.0225H26.6521C25.0497 61.0225 23.7461 62.3261 23.7461 63.9281C23.7461 65.5305 25.0497 66.8338 26.6521 66.8338H67.1455C68.7479 66.8338 70.0511 65.5305 70.0511 63.9281C70.0515 62.3261 68.7479 61.0225 67.1455 61.0225ZM26.6521 65.3107C25.9674 65.3107 25.3973 64.81 25.2886 64.1554C25.2874 64.1499 25.2866 64.1443 25.2858 64.1384C25.2838 64.1273 25.2822 64.1158 25.281 64.1043C25.2802 64.0983 25.2795 64.0928 25.2787 64.0868C25.2763 64.0638 25.2739 64.0404 25.2727 64.017C25.2707 63.9876 25.2695 63.9579 25.2695 63.9281C25.2695 63.8984 25.2707 63.869 25.2727 63.8396C25.2739 63.8162 25.2763 63.7928 25.2787 63.7698C25.2795 63.7639 25.2802 63.7583 25.281 63.7524C25.2822 63.7409 25.2838 63.7293 25.2858 63.7182C25.2866 63.7123 25.2874 63.7067 25.2886 63.7008C25.3973 63.0466 25.9674 62.5459 26.6521 62.5459C27.4143 62.5459 28.0343 63.166 28.0343 63.9281C28.0343 64.6902 27.4143 65.3103 26.6521 65.3107ZM36.8528 65.3107H29.2075C29.4308 64.8993 29.5578 64.4284 29.5578 63.9281C29.5578 63.4282 29.4308 62.9573 29.2075 62.5459H36.8528C36.6295 62.9573 36.5025 63.4282 36.5025 63.9281C36.5025 64.428 36.6295 64.8993 36.8528 65.3107ZM39.4082 65.3107C38.6457 65.3107 38.026 64.6906 38.026 63.9281C38.026 63.166 38.6457 62.5459 39.4082 62.5459C40.1703 62.5459 40.7904 63.166 40.7904 63.9281C40.7904 64.6906 40.1703 65.3107 39.4082 65.3107ZM51.8341 65.3107H41.9635C42.1869 64.8993 42.3138 64.4284 42.3138 63.9281C42.3138 63.4282 42.1869 62.9573 41.9635 62.5459H51.8341C51.6108 62.9573 51.4838 63.4282 51.4838 63.9281C51.4838 64.428 51.6108 64.8993 51.8341 65.3107ZM54.3895 65.3107C53.6273 65.3107 53.0073 64.6906 53.0073 63.9281C53.0073 63.166 53.6273 62.5459 54.3895 62.5459C55.152 62.5459 55.7717 63.166 55.7717 63.9281C55.7717 64.6906 55.152 65.3107 54.3895 65.3107ZM56.9448 65.3107C57.1682 64.8993 57.2951 64.4284 57.2951 63.9281C57.2951 63.4282 57.1682 62.9573 56.9448 62.5459H64.5902C64.3668 62.9573 64.2399 63.4282 64.2399 63.9281C64.2399 64.4284 64.3668 64.8993 64.5902 65.3107H56.9448ZM67.1455 65.3107C66.3834 65.3107 65.7633 64.6902 65.7633 63.9281C65.7633 63.166 66.3834 62.5459 67.1455 62.5459C67.9076 62.5459 68.5281 63.166 68.5281 63.9281C68.5281 64.6906 67.9076 65.3107 67.1455 65.3107Z" fill="#00AB28"/>
</g>
<defs>
<linearGradient id="paint0_linear" x1="-3.81875" y1="1.20809e-06" x2="113.43" y2="64.4153" gradientUnits="userSpaceOnUse">
<stop stop-color="#16222A"/>
<stop offset="1" stop-color="#3A6073"/>
</linearGradient>
<clipPath id="clip0">
<rect x="21" y="18" width="52" height="52" fill="white"/>
</clipPath>
</defs>
</svg>
