<svg width="94" height="94" viewBox="0 0 94 94" fill="none" xmlns="http://www.w3.org/2000/svg">
<circle cx="47" cy="47" r="47" fill="url(#paint0_linear)"/>
<path d="M71.9236 35.9599C71.7791 35.4224 71.4264 34.9641 70.9439 34.6863C70.461 34.4071 69.8869 34.3315 69.3483 34.4761C68.8104 34.621 68.3521 34.9733 68.0743 35.4559L67.7243 36.0648C67.3918 35.8738 66.967 35.9862 66.7726 36.317L64.9949 39.3472L64.3859 38.9973C64.2246 38.904 64.0325 38.8787 63.8528 38.9272C63.6727 38.9761 63.5196 39.0944 63.427 39.2563C63.2373 39.5909 63.3528 40.016 63.686 40.2081L64.295 40.558L58.346 50.8673L56.8762 54.7938L56.1763 56.1023C55.7666 56.8152 55.8103 57.7013 56.2884 58.3701L54.7137 60.3016L54.2728 59.1961C54.0739 58.7033 53.6136 58.3657 53.0843 58.3243C52.5546 58.2826 52.0471 58.5444 51.774 58.9999L51.5222 59.4268L51.2843 56.6273C51.2296 55.965 50.7167 55.4325 50.0571 55.3526C49.3972 55.2729 48.7725 55.6683 48.5617 56.2985L46.84 61.4635C46.7197 61.8289 46.9166 62.2225 47.2808 62.3456C47.3492 62.3774 47.4227 62.3965 47.4979 62.4013C47.7986 62.4023 48.0665 62.2106 48.1629 61.9256L49.8774 56.7605L50.1224 59.6018C50.173 60.208 50.6087 60.7121 51.2013 60.8494C51.7938 60.9868 52.4069 60.7257 52.7189 60.2039L52.978 59.7767L53.412 60.8758C53.5962 61.3388 54.0128 61.6693 54.5059 61.7427C54.999 61.8162 55.4939 61.6218 55.8055 61.2325L57.4363 59.1681C57.6167 59.2152 57.8026 59.2388 57.9892 59.2381C58.7393 59.244 59.4358 58.8489 59.8158 58.202L60.5157 57.0332L63.1823 53.7929L69.1942 43.3575L69.8031 43.7075C69.9655 43.8004 70.0837 43.9539 70.1319 44.1347C70.1804 44.3141 70.1551 44.5054 70.0622 44.6664L67.2626 49.5167C67.1571 49.676 67.1212 49.8714 67.1635 50.058C67.2059 50.2443 67.3225 50.4052 67.4865 50.5033C67.6478 50.5969 67.8398 50.6222 68.0196 50.5737C68.1997 50.5248 68.3528 50.4066 68.4454 50.2446L71.2449 45.3943C71.5241 44.9114 71.5997 44.3373 71.4548 43.7987C71.3099 43.2608 70.9575 42.8026 70.475 42.5247L69.866 42.1748L71.6157 39.1443C71.8067 38.8117 71.6943 38.3873 71.3639 38.1925L71.7138 37.5835C72.0005 37.0931 72.0764 36.5074 71.9236 35.9599V35.9599ZM69.2851 36.1557C69.3777 35.9938 69.5315 35.8752 69.7122 35.827C69.892 35.7826 70.082 35.8075 70.244 35.897C70.4063 35.9897 70.5245 36.1434 70.5731 36.3239C70.6175 36.5036 70.5925 36.6936 70.503 36.8556L70.1531 37.4646L68.9351 36.7647L69.2851 36.1557ZM59.7458 55.6967L59.3958 55.4937L58.36 54.8916L59.3538 52.2322L61.5583 53.5058L59.7458 55.6967ZM57.6461 57.7191C57.3505 57.513 57.2596 57.1166 57.4363 56.8022L57.7862 56.1936L59.0039 56.8935L58.6539 57.4953C58.5558 57.6655 58.3911 57.7864 58.1994 57.8292C58.0077 57.8715 57.8071 57.8319 57.6461 57.7191ZM62.3563 52.3583L59.9347 50.9585L65.5338 41.2579L67.9554 42.6577L62.3563 52.3583ZM68.6552 41.4469L66.2337 40.0471L67.6334 37.6256L70.055 39.0253L68.6552 41.4469Z" fill="#00AB28"/>
<path d="M41.0438 57.3685L38.5665 59.8392L37.0827 58.3554C36.8097 58.0841 36.3688 58.0841 36.0958 58.3554C35.9632 58.487 35.8887 58.6657 35.8887 58.8523C35.8887 59.0389 35.9632 59.218 36.0958 59.3492L37.5796 60.833C37.8421 61.0934 38.1968 61.2393 38.5665 61.239C38.9383 61.2411 39.2961 61.0951 39.5603 60.833L42.0307 58.3554C42.2686 58.0776 42.2525 57.6637 41.9942 57.4054C41.7355 57.1467 41.3216 57.1306 41.0438 57.3685Z" fill="white"/>
<path d="M32.8008 59.2515C32.8008 62.5374 35.4643 65.2005 38.7498 65.2005C42.0352 65.2005 44.6988 62.5374 44.6988 59.2515C44.6988 58.865 44.3854 58.5517 43.9989 58.5517C43.6124 58.5517 43.299 58.865 43.299 59.2515C43.299 61.764 41.2622 63.8008 38.7498 63.8008C36.2373 63.8008 34.2005 61.764 34.2005 59.2515C34.2005 56.7391 36.2373 54.7023 38.7498 54.7023C39.7347 54.6996 40.6932 55.0191 41.4792 55.6124C41.7885 55.8444 42.2273 55.7815 42.459 55.4722C42.691 55.163 42.6285 54.7245 42.3192 54.4925C40.5166 53.1406 38.1046 52.9232 36.0893 53.9307C34.0738 54.9384 32.8008 56.9984 32.8008 59.2515Z" fill="white"/>
<path d="M55.1956 31.3998C55.5821 31.3998 55.8955 31.0867 55.8955 30.6999C55.8955 30.3134 55.5821 30 55.1956 30H36.9987C36.6122 30 36.2988 30.3134 36.2988 30.6999V33.4994C36.2988 33.8863 36.6122 34.1993 36.9987 34.1993H55.1956C55.5821 34.1993 55.8955 33.8863 55.8955 33.4994C55.8955 33.1129 55.5821 32.7995 55.1956 32.7995H37.6986V31.3998H55.1956Z" fill="white"/>
<path d="M39.0983 35.8057C38.7118 35.8057 38.3984 36.119 38.3984 36.5055C38.3984 36.8924 38.7118 37.2054 39.0983 37.2054H53.0959C53.4824 37.2054 53.7958 36.8924 53.7958 36.5055C53.7958 36.119 53.4824 35.8057 53.0959 35.8057H39.0983Z" fill="white"/>
<path d="M57.2965 40.7041H41.8991C41.5126 40.7041 41.1992 41.0175 41.1992 41.404C41.1992 41.7908 41.5126 42.1039 41.8991 42.1039H57.2965C57.683 42.1039 57.9964 41.7908 57.9964 41.404C57.9964 41.0175 57.683 40.7041 57.2965 40.7041Z" fill="white"/>
<path d="M50.2958 45.6042C50.2958 45.2177 49.9824 44.9043 49.5959 44.9043H35.5983C35.2118 44.9043 34.8984 45.2177 34.8984 45.6042C34.8984 45.991 35.2118 46.3041 35.5983 46.3041H49.5959C49.9824 46.3041 50.2958 45.991 50.2958 45.6042Z" fill="white"/>
<path d="M57.2944 44.9043H52.3952C52.0087 44.9043 51.6953 45.2177 51.6953 45.6042C51.6953 45.991 52.0087 46.3041 52.3952 46.3041H57.2944C57.6809 46.3041 57.9942 45.991 57.9942 45.6042C57.9942 45.2177 57.6809 44.9043 57.2944 44.9043Z" fill="white"/>
<path d="M42.5971 49.8031C42.9836 49.8031 43.297 49.49 43.297 49.1032C43.297 48.7167 42.9836 48.4033 42.5971 48.4033H35.5983C35.2118 48.4033 34.8984 48.7167 34.8984 49.1032C34.8984 49.49 35.2118 49.8031 35.5983 49.8031H42.5971Z" fill="white"/>
<path d="M45.3971 49.8031H50.2963C50.6828 49.8031 50.9962 49.49 50.9962 49.1032C50.9962 48.7167 50.6828 48.4033 50.2963 48.4033H45.3971C45.0106 48.4033 44.6973 48.7167 44.6973 49.1032C44.6973 49.49 45.0106 49.8031 45.3971 49.8031Z" fill="white"/>
<path d="M61.4946 58.2004C61.1081 58.2004 60.7948 58.5137 60.7948 58.9003V65.8991C60.7948 66.2859 60.4814 66.5989 60.0949 66.5989H32.0996C31.7131 66.5989 31.3998 66.2859 31.3998 65.8991V28.1055C31.3998 27.719 31.7131 27.4056 32.0996 27.4056H60.0949C60.4814 27.4056 60.7948 27.719 60.7948 28.1055V41.2495C60.7948 41.636 61.1081 41.9493 61.4946 41.9493C61.8811 41.9493 62.1945 41.636 62.1945 41.2495V28.1055C62.1945 26.946 61.2544 26.0059 60.0949 26.0059H32.0996C30.9401 26.0059 30 26.946 30 28.1055V65.8991C30 67.0589 30.9401 67.9987 32.0996 67.9987H60.0949C61.2544 67.9987 62.1945 67.0589 62.1945 65.8991V58.9003C62.1945 58.5137 61.8811 58.2004 61.4946 58.2004Z" fill="white"/>
<defs>
<linearGradient id="paint0_linear" x1="-3.81875" y1="1.20809e-06" x2="113.43" y2="64.4153" gradientUnits="userSpaceOnUse">
<stop stop-color="#16222A"/>
<stop offset="1" stop-color="#3A6073"/>
</linearGradient>
</defs>
</svg>
