<svg width="94" height="94" viewBox="0 0 94 94" fill="none" xmlns="http://www.w3.org/2000/svg">
<circle cx="47" cy="47" r="47" fill="url(#paint0_linear)"/>
<path d="M56.1133 28.625H51.3672V28.3988C51.3672 26.9946 50.225 25.852 48.8204 25.852H47.1907C46.447 24.144 44.7438 23 42.8387 23H42.6691C40.764 23 39.0608 24.144 38.3171 25.852H36.6874C35.2829 25.852 34.1406 26.9946 34.1406 28.3988V28.625H29.3945C26.6428 28.625 25 29.9392 25 32.1406V63.6055C25 66.0286 26.9714 68 29.3945 68H56.1133C58.5365 68 60.5078 66.0286 60.5078 63.6055V43.713C60.5078 43.2275 60.1144 42.8341 59.6289 42.8341C59.1434 42.8341 58.75 43.2275 58.75 43.713V63.6055C58.75 65.0594 57.5673 66.2422 56.1133 66.2422H29.3945C27.9406 66.2422 26.7578 65.0594 26.7578 63.6055V32.1406C26.7578 31.706 26.7578 30.3828 29.3945 30.3828H34.1406V31.6133C34.1406 32.0987 34.5341 32.4922 35.0195 32.4922H50.4883C50.9737 32.4922 51.3672 32.0987 51.3672 31.6133V30.3828H56.1133C57.5673 30.3828 58.75 31.5656 58.75 33.0195V35.9786C58.75 36.4641 59.1434 36.8575 59.6289 36.8575C60.1144 36.8575 60.5078 36.4641 60.5078 35.9786V33.0195C60.5078 30.5964 58.5365 28.625 56.1133 28.625ZM49.6094 30.7344H35.8984V28.3988C35.8984 27.9638 36.2524 27.6098 36.6874 27.6098H38.9375C39.3344 27.6098 39.6819 27.3441 39.7859 26.9613C40.1378 25.6638 41.3236 24.7578 42.6691 24.7578H42.8387C44.1842 24.7578 45.37 25.6638 45.7223 26.9613C45.826 27.3441 46.1737 27.6098 46.5703 27.6098H48.8208C49.2558 27.6098 49.6094 27.9638 49.6094 28.3988V30.7344Z" fill="white"/>
<path d="M59.6289 38.7773C59.3979 38.7773 59.1709 38.8704 59.0075 39.0338C58.8441 39.1983 58.75 39.4242 58.75 39.6552C58.75 39.8873 58.8441 40.1132 59.0075 40.2773C59.1709 40.4411 59.3979 40.5352 59.6289 40.5352C59.86 40.5352 60.0869 40.4411 60.2503 40.2773C60.4137 40.1139 60.5078 39.8873 60.5078 39.6552C60.5078 39.4242 60.4137 39.1972 60.2503 39.0338C60.0869 38.8704 59.86 38.7773 59.6289 38.7773Z" fill="white"/>
<path d="M69.1211 51.3008C68.89 51.3008 68.6631 51.3949 68.4997 51.5583C68.3363 51.7217 68.2422 51.9486 68.2422 52.1797C68.2422 52.4107 68.3363 52.6377 68.4997 52.8011C68.6631 52.9645 68.89 53.0586 69.1211 53.0586C69.3521 53.0586 69.5791 52.9645 69.7425 52.8011C69.9059 52.6377 70 52.4107 70 52.1797C70 51.9486 69.9059 51.7217 69.7425 51.5583C69.5791 51.3949 69.3521 51.3008 69.1211 51.3008Z" fill="white"/>
<path d="M69.9234 39.2968L67.1109 33.012C66.9691 32.6958 66.655 32.4922 66.3086 32.4922C65.9622 32.4922 65.648 32.6958 65.5062 33.012L62.6937 39.2968C62.6433 39.4095 62.6172 39.532 62.6172 39.6556V65.9016C62.6172 67.0586 63.5586 68 64.7156 68H67.9016C69.0586 68 70 67.0586 70 65.9016V56.0177C70 55.5322 69.6066 55.1388 69.1211 55.1388C68.6356 55.1388 68.2422 55.5322 68.2422 56.0177V62.1628H64.375V40.5345H68.2422V48.6466C68.2422 49.132 68.6356 49.5255 69.1211 49.5255C69.6066 49.5255 70 49.132 70 48.6466V39.6556C70 39.532 69.9739 39.4095 69.9234 39.2968ZM66.3086 35.5227L67.765 38.7767H64.8522L66.3086 35.5227ZM68.2422 63.9206V65.9016C68.2422 66.0894 68.0894 66.2422 67.9016 66.2422H64.7156C64.5278 66.2422 64.375 66.0894 64.375 65.9016V63.9206H68.2422Z" fill="white"/>
<path d="M35.3418 35.6562C33.3062 35.6562 31.6504 37.3121 31.6504 39.3477C31.6504 41.3832 33.3062 43.0391 35.3418 43.0391C37.377 43.0391 39.0332 41.3832 39.0332 39.3477C39.0332 37.3121 37.377 35.6562 35.3418 35.6562ZM35.3418 41.2812C34.2754 41.2812 33.4082 40.414 33.4082 39.3477C33.4082 38.2813 34.2754 37.4141 35.3418 37.4141C36.4078 37.4141 37.2754 38.2813 37.2754 39.3477C37.2754 40.414 36.4078 41.2812 35.3418 41.2812Z" fill="#00AB28"/>
<path d="M35.3418 46.2031C33.3062 46.2031 31.6504 47.859 31.6504 49.8945C31.6504 51.9301 33.3062 53.5859 35.3418 53.5859C37.377 53.5859 39.0332 51.9301 39.0332 49.8945C39.0332 47.859 37.377 46.2031 35.3418 46.2031ZM35.3418 51.8281C34.2754 51.8281 33.4082 50.9609 33.4082 49.8945C33.4082 48.8282 34.2754 47.9609 35.3418 47.9609C36.4078 47.9609 37.2754 48.8282 37.2754 49.8945C37.2754 50.9609 36.4078 51.8281 35.3418 51.8281Z" fill="#00AB28"/>
<path d="M35.3418 56.75C33.3062 56.75 31.6504 58.4058 31.6504 60.4414C31.6504 62.477 33.3062 64.1328 35.3418 64.1328C37.377 64.1328 39.0332 62.477 39.0332 60.4414C39.0332 58.4058 37.377 56.75 35.3418 56.75ZM35.3418 62.375C34.2754 62.375 33.4082 61.5078 33.4082 60.4414C33.4082 59.375 34.2754 58.5078 35.3418 58.5078C36.4078 58.5078 37.2754 59.375 37.2754 60.4414C37.2754 61.5078 36.4078 62.375 35.3418 62.375Z" fill="#00AB28"/>
<path d="M52.9783 41.2812H42.9004C42.4149 41.2812 42.0215 41.6747 42.0215 42.1602C42.0215 42.6456 42.4149 43.0391 42.9004 43.0391H52.9786C53.4637 43.0391 53.8575 42.6456 53.8575 42.1602C53.8575 41.6747 53.4637 41.2812 52.9783 41.2812Z" fill="white"/>
<path d="M52.9783 37.0625H42.9004C42.4149 37.0625 42.0215 37.4559 42.0215 37.9414C42.0215 38.4269 42.4149 38.8203 42.9004 38.8203H52.9786C53.4637 38.8203 53.8575 38.4269 53.8575 37.9414C53.8575 37.4559 53.4637 37.0625 52.9783 37.0625Z" fill="white"/>
<path d="M52.9783 51.8281H42.9004C42.4149 51.8281 42.0215 52.2216 42.0215 52.707C42.0215 53.1925 42.4149 53.5859 42.9004 53.5859H52.9786C53.4637 53.5859 53.8575 53.1925 53.8575 52.707C53.8575 52.2216 53.4637 51.8281 52.9783 51.8281Z" fill="white"/>
<path d="M52.9783 47.6094H42.9004C42.4149 47.6094 42.0215 48.0028 42.0215 48.4883C42.0215 48.9737 42.4149 49.3672 42.9004 49.3672H52.9786C53.4637 49.3672 53.8575 48.9737 53.8575 48.4883C53.8575 48.0028 53.4637 47.6094 52.9783 47.6094Z" fill="white"/>
<path d="M52.9783 62.375H42.9004C42.4149 62.375 42.0215 62.7684 42.0215 63.2539C42.0215 63.7394 42.4149 64.1328 42.9004 64.1328H52.9786C53.4637 64.1328 53.8575 63.7394 53.8575 63.2539C53.8575 62.7684 53.4637 62.375 52.9783 62.375Z" fill="white"/>
<path d="M52.9783 58.1562H42.9004C42.4149 58.1562 42.0215 58.5497 42.0215 59.0352C42.0215 59.5206 42.4149 59.9141 42.9004 59.9141H52.9786C53.4637 59.9141 53.8575 59.5206 53.8575 59.0352C53.8575 58.5497 53.4637 58.1562 52.9783 58.1562Z" fill="white"/>
<defs>
<linearGradient id="paint0_linear" x1="-3.81875" y1="1.20809e-06" x2="113.43" y2="64.4153" gradientUnits="userSpaceOnUse">
<stop stop-color="#16222A"/>
<stop offset="1" stop-color="#3A6073"/>
</linearGradient>
</defs>
</svg>
