<svg width="94" height="94" viewBox="0 0 94 94" fill="none" xmlns="http://www.w3.org/2000/svg">
<circle cx="47" cy="47" r="47" fill="url(#paint0_linear)"/>
<path d="M59.4655 32.3335H34.5321C34.1274 32.3335 33.7988 32.005 33.7988 31.6002V28.1286C33.7988 26.4038 35.2024 25.0002 36.9272 25.0002H57.0704C58.7952 25.0002 60.1988 26.4038 60.1988 28.1286V31.6002C60.1988 32.005 59.8703 32.3335 59.4655 32.3335ZM58.7321 28.1286C58.7321 27.2127 57.9864 26.4669 57.0711 26.4669H36.9272C36.0105 26.4669 35.2654 27.2127 35.2654 28.1286V30.8669H58.7321V28.1286Z" fill="white"/>
<path d="M49.1997 29.3999H44.7997C44.3949 29.3999 44.0664 29.0714 44.0664 28.6666C44.0664 28.2618 44.3949 27.9333 44.7997 27.9333H49.1997C49.6045 27.9333 49.933 28.2618 49.933 28.6666C49.933 29.0714 49.6045 29.3999 49.1997 29.3999Z" fill="white"/>
<path d="M55.7994 29.3999H52.8661C52.4614 29.3999 52.1328 29.0714 52.1328 28.6666C52.1328 28.2618 52.4614 27.9333 52.8661 27.9333H55.7994C56.2042 27.9333 56.5327 28.2618 56.5327 28.6666C56.5327 29.0714 56.2042 29.3999 55.7994 29.3999Z" fill="white"/>
<path d="M41.1334 29.3999H38.2001C37.7953 29.3999 37.4668 29.0714 37.4668 28.6666C37.4668 28.2618 37.7953 27.9333 38.2001 27.9333H41.1334C41.5382 27.9333 41.8667 28.2618 41.8667 28.6666C41.8667 29.0714 41.5383 29.3999 41.1334 29.3999Z" fill="white"/>
<path d="M57.0711 69H36.9272C35.2024 69 33.7988 67.5964 33.7988 65.8716V62.4C33.7988 61.9952 34.1274 61.6667 34.5321 61.6667H59.4654C59.8702 61.6667 60.1987 61.9952 60.1987 62.4V65.8716C60.1988 67.5964 58.7952 69 57.0711 69ZM58.7321 63.1333H35.2655V65.8716C35.2655 66.7875 36.0106 67.5334 36.9273 67.5334H57.0705C57.9865 67.5334 58.7322 66.7876 58.7322 65.8716V63.1333H58.7321Z" fill="white"/>
<path d="M50.6662 66.0669H43.3329C42.9281 66.0669 42.5996 65.7384 42.5996 65.3336C42.5996 64.9288 42.9281 64.6003 43.3329 64.6003H50.6662C51.071 64.6003 51.3995 64.9288 51.3995 65.3336C51.3995 65.7384 51.071 66.0669 50.6662 66.0669Z" fill="white"/>
<path d="M59.4655 63.1333H34.5321C34.1274 63.1333 33.7988 62.8048 33.7988 62.4V31.6C33.7988 31.1952 34.1274 30.8667 34.5321 30.8667H59.4654C59.8702 30.8667 60.1987 31.1952 60.1987 31.6V62.4C60.1988 62.8048 59.8703 63.1333 59.4655 63.1333ZM58.7321 32.3333H35.2655V61.6667H58.7322V32.3333H58.7321Z" fill="white"/>
<path d="M63.8362 52.3382C63.7233 52.7276 63.3156 52.9513 62.9276 52.8376C62.5383 52.7247 62.3153 52.3177 62.4283 51.929C62.8917 50.3354 63.1271 48.6773 63.1271 47.001C63.1271 45.3194 62.8909 43.6555 62.4239 42.0568C62.311 41.6681 62.5339 41.2611 62.9226 41.1475C62.9915 41.127 63.0604 41.1174 63.1286 41.1174C63.4462 41.1174 63.7388 41.325 63.8312 41.6454C64.3372 43.3783 64.5939 45.1793 64.5939 47.0002C64.5938 48.8153 64.3393 50.6112 63.8362 52.3382Z" fill="#00AB28"/>
<path d="M31.5769 42.0558C31.1097 43.6545 30.8729 45.3184 30.8729 46.9999C30.8729 48.6763 31.1082 50.3344 31.5725 51.9287C31.6854 52.3174 31.4617 52.7244 31.0731 52.8373C30.6829 52.9517 30.2767 52.7273 30.1638 52.3379C29.6614 50.6109 29.4062 48.8149 29.4062 46.9999C29.4062 45.1791 29.6629 43.3772 30.1689 41.6452C30.2621 41.3254 30.5547 41.1172 30.8722 41.1172C30.9404 41.1172 31.0093 41.1267 31.0782 41.1465C31.4676 41.2602 31.6906 41.6672 31.5769 42.0558Z" fill="#00AB28"/>
<path d="M26.4667 47.0002C26.4667 49.9848 26.9646 52.7436 27.8695 54.7676C28.0345 55.1372 27.8688 55.5706 27.4992 55.7364C27.1304 55.9006 26.6962 55.7349 26.5305 55.3661C25.5434 53.1572 25 50.1865 25 47.0002C25 43.8138 25.5434 40.8431 26.5298 38.6343C26.6522 38.3622 26.9199 38.2002 27.2 38.2002C27.3005 38.2002 27.4017 38.2207 27.4992 38.2639C27.8689 38.4289 28.0345 38.8631 27.8695 39.2327C26.9646 41.2567 26.4667 44.0155 26.4667 47.0002Z" fill="#00AB28"/>
<path d="M67.4694 55.3659C67.3044 55.7355 66.8702 55.9005 66.5006 55.7362C66.131 55.5712 65.9653 55.1371 66.1303 54.7675C67.0352 52.7427 67.5331 49.9839 67.5331 47C67.5331 44.0161 67.0352 41.2572 66.131 39.2325C65.966 38.8629 66.1317 38.4288 66.5013 38.2638C66.598 38.2205 66.7 38.2 66.7997 38.2C67.0799 38.2 67.3475 38.3613 67.4693 38.6341C68.4564 40.843 68.9998 43.8145 68.9998 47.0001C68.9998 50.1857 68.4564 53.1572 67.4694 55.3659Z" fill="#00AB28"/>
<path d="M45.5324 60.2002H37.4657C37.061 60.2002 36.7324 59.8717 36.7324 59.4669V52.1336C36.7324 51.7288 37.061 51.4003 37.4657 51.4003H45.5324C45.9372 51.4003 46.2657 51.7288 46.2657 52.1336V59.4669C46.2658 59.8717 45.9373 60.2002 45.5324 60.2002ZM44.7991 52.8669H38.1991V58.7336H44.7991V52.8669Z" fill="white"/>
<path d="M56.5324 60.2002H48.4657C48.061 60.2002 47.7324 59.8717 47.7324 59.4669V52.1336C47.7324 51.7288 48.061 51.4003 48.4657 51.4003H56.5324C56.9372 51.4003 57.2657 51.7288 57.2657 52.1336V59.4669C57.2658 59.8717 56.9373 60.2002 56.5324 60.2002ZM55.7991 52.8669H49.1991V58.7336H55.7991V52.8669Z" fill="white"/>
<path d="M45.5324 49.9331H37.4657C37.061 49.9331 36.7324 49.6046 36.7324 49.1998V41.8665C36.7324 41.4617 37.061 41.1332 37.4657 41.1332H45.5324C45.9372 41.1332 46.2657 41.4617 46.2657 41.8665V49.1998C46.2658 49.6046 45.9373 49.9331 45.5324 49.9331ZM44.7991 42.5998H38.1991V48.4665H44.7991V42.5998Z" fill="white"/>
<path d="M56.5324 49.9331H48.4657C48.061 49.9331 47.7324 49.6046 47.7324 49.1998V41.8665C47.7324 41.4617 48.061 41.1332 48.4657 41.1332H56.5324C56.9372 41.1332 57.2657 41.4617 57.2657 41.8665V49.1998C57.2658 49.6046 56.9373 49.9331 56.5324 49.9331ZM55.7991 42.5998H49.1991V48.4665H55.7991V42.5998Z" fill="white"/>
<path d="M45.5324 39.6665H37.4657C37.061 39.6665 36.7324 39.338 36.7324 38.9332V31.5998C36.7324 31.195 37.061 30.8665 37.4657 30.8665H45.5324C45.9372 30.8665 46.2657 31.195 46.2657 31.5998V38.9331C46.2658 39.338 45.9373 39.6665 45.5324 39.6665ZM44.7991 32.3331H38.1991V38.1998H44.7991V32.3331Z" fill="white"/>
<path d="M56.5324 39.6665H48.4657C48.061 39.6665 47.7324 39.338 47.7324 38.9332V31.5998C47.7324 31.195 48.061 30.8665 48.4657 30.8665H56.5324C56.9372 30.8665 57.2657 31.195 57.2657 31.5998V38.9331C57.2658 39.338 56.9373 39.6665 56.5324 39.6665ZM55.7991 32.3331H49.1991V38.1998H55.7991V32.3331Z" fill="white"/>
<defs>
<linearGradient id="paint0_linear" x1="-3.81875" y1="1.20809e-06" x2="113.43" y2="64.4153" gradientUnits="userSpaceOnUse">
<stop stop-color="#16222A"/>
<stop offset="1" stop-color="#3A6073"/>
</linearGradient>
</defs>
</svg>
