<svg width="94" height="94" viewBox="0 0 94 94" fill="none" xmlns="http://www.w3.org/2000/svg">
<circle cx="47" cy="47" r="47" fill="url(#paint0_linear)"/>
<g clip-path="url(#clip0)">
<g filter="url(#filter0_d)">
<path d="M72.0098 43.8165L70.5337 37.8604C70.9372 37.774 71.2401 37.4128 71.2401 36.9801V36.0198C71.2401 33.9347 69.5584 32.2385 67.4916 32.2385H60.7683V30.2576C60.7683 29.2316 59.9409 28.397 58.9238 28.397H24.6524C23.6353 28.397 22.8079 29.2316 22.8079 30.2576V46.5834C22.8079 47.0805 23.2074 47.4837 23.7004 47.4837C24.1932 47.4837 24.5929 47.0807 24.5929 46.5834V30.2576C24.5929 30.2245 24.6195 30.1977 24.6524 30.1977H58.9237C58.9566 30.1977 58.9832 30.2245 58.9832 30.2576V46.5836C58.9832 47.0808 59.3827 47.4839 59.8757 47.4839C60.3685 47.4839 60.7682 47.0809 60.7682 46.5836V45.563H71.2964C71.2973 45.563 71.2979 45.5632 71.2987 45.5632C71.2996 45.5632 71.3004 45.5631 71.3012 45.5631C72.5967 45.564 73.6967 46.4218 74.0746 47.6038H71.2994C70.8065 47.6038 70.4069 48.0068 70.4069 48.5041V50.4247C70.4069 51.9803 71.6613 53.2457 73.2033 53.2457H74.2149V57.2071H71.8812C71.1146 54.9741 69.0104 53.3657 66.5394 53.3657C64.0685 53.3657 61.9642 54.9741 61.1977 57.2071H60.768V50.4246C60.768 49.9275 60.3684 49.5243 59.8755 49.5243C59.3826 49.5243 58.9829 49.9274 58.9829 50.4246V57.2068H40.466C39.6994 54.9739 37.5951 53.3655 35.1242 53.3655C32.6533 53.3655 30.549 54.9739 29.7825 57.2068H24.6524C24.6195 57.2068 24.5929 57.18 24.5929 57.1469V55.1661H28.4603C28.9532 55.1661 29.3528 54.7631 29.3528 54.2658C29.3528 53.7685 28.9533 53.3655 28.4603 53.3655H19.8925C19.3997 53.3655 19 53.7685 19 54.2658C19 54.7631 19.3996 55.1661 19.8925 55.1661H22.808V57.1469C22.808 58.1729 23.6354 59.0075 24.6525 59.0075H29.4734C29.4732 59.0275 29.4719 59.0474 29.4719 59.0675C29.4719 62.2116 32.0076 64.7694 35.1242 64.7694C38.2408 64.7694 40.7766 62.2116 40.7766 59.0675C40.7766 59.0473 40.7752 59.0275 40.775 59.0075H60.8887C60.8884 59.0275 60.8871 59.0474 60.8871 59.0675C60.8871 62.2116 63.4228 64.7694 66.5394 64.7694C69.6561 64.7694 72.1918 62.2116 72.1918 59.0675C72.1918 59.0473 72.1905 59.0275 72.1902 59.0075H75.1074C75.6002 59.0075 75.9999 58.6045 75.9999 58.1072V48.5039C76 46.1329 74.2658 44.163 72.0098 43.8165ZM60.7683 34.039H67.4916C68.5743 34.039 69.4551 34.9276 69.4551 36.0198V36.0797H60.7683V34.039ZM60.7683 43.7624V37.8803H68.6988L70.1565 43.7624H60.7683ZM35.1242 62.9691C32.9917 62.9691 31.2568 61.219 31.2568 59.0677C31.2568 56.9164 32.9917 55.1664 35.1242 55.1664C37.2567 55.1664 38.9916 56.9164 38.9916 59.0677C38.9916 61.219 37.2567 62.9691 35.1242 62.9691ZM66.5397 62.9691C64.4072 62.9691 62.6722 61.219 62.6722 59.0677C62.6722 56.9164 64.4072 55.1664 66.5397 55.1664C68.6722 55.1664 70.4071 56.9164 70.4071 59.0677C70.4071 61.219 68.6722 62.9691 66.5397 62.9691ZM74.2151 51.445H73.2035C72.6458 51.445 72.192 50.9873 72.192 50.4246V49.4042H74.215V51.445H74.2151Z" fill="white"/>
</g>
<path d="M35 57C33.8972 57 33 57.8972 33 59C33 60.1029 33.8972 61 35 61C36.1028 61 37 60.1029 37 59C37 57.8972 36.1028 57 35 57Z" fill="white"/>
<path d="M66.5398 57.2065C65.5227 57.2065 64.6953 58.0412 64.6953 59.0672C64.6953 60.0932 65.5227 60.9279 66.5398 60.9279C67.5569 60.9279 68.3843 60.0932 68.3843 59.0672C68.3843 58.0412 67.5569 57.2065 66.5398 57.2065Z" fill="white"/>
<path d="M56.0679 53.3657H42.7402C42.2473 53.3657 41.8477 53.7688 41.8477 54.2661C41.8477 54.7634 42.2472 55.1664 42.7402 55.1664H56.0679C56.5608 55.1664 56.9604 54.7634 56.9604 54.2661C56.9604 53.7688 56.5609 53.3657 56.0679 53.3657Z" fill="white"/>
<path d="M33.2206 50.3335H21.7968C21.304 50.3335 20.9043 50.7366 20.9043 51.2338C20.9043 51.7311 21.3039 52.1342 21.7968 52.1342H33.2206C33.7135 52.1342 34.1132 51.7311 34.1132 51.2338C34.1132 50.7366 33.7135 50.3335 33.2206 50.3335Z" fill="white"/>
<g filter="url(#filter1_d)">
<path d="M50.0349 37.3041C49.6864 36.9526 49.1212 36.9526 48.7728 37.3043L40.836 45.3106L36.7071 41.1455C36.3586 40.7939 35.7935 40.7939 35.445 41.1455C35.0965 41.4972 35.0965 42.0671 35.445 42.4187L40.205 47.2204C40.3792 47.3963 40.6076 47.4841 40.836 47.4841C41.0643 47.4841 41.2929 47.3963 41.467 47.2204L50.0348 38.5775C50.3834 38.2257 50.3834 37.6558 50.0349 37.3041Z" fill="#00AB28"/>
</g>
</g>
<defs>
<filter id="filter0_d" x="9" y="18.397" width="76.9999" height="56.3725" filterUnits="userSpaceOnUse" color-interpolation-filters="sRGB">
<feFlood flood-opacity="0" result="BackgroundImageFix"/>
<feColorMatrix in="SourceAlpha" type="matrix" values="0 0 0 0 0 0 0 0 0 0 0 0 0 0 0 0 0 0 127 0"/>
<feOffset/>
<feGaussianBlur stdDeviation="5"/>
<feColorMatrix type="matrix" values="0 0 0 0 1 0 0 0 0 0.670588 0 0 0 0 0 0 0 0 0.01 0"/>
<feBlend mode="normal" in2="BackgroundImageFix" result="effect1_dropShadow"/>
<feBlend mode="normal" in="SourceGraphic" in2="effect1_dropShadow" result="shape"/>
</filter>
<filter id="filter1_d" x="25.1836" y="27.0405" width="35.1126" height="30.4436" filterUnits="userSpaceOnUse" color-interpolation-filters="sRGB">
<feFlood flood-opacity="0" result="BackgroundImageFix"/>
<feColorMatrix in="SourceAlpha" type="matrix" values="0 0 0 0 0 0 0 0 0 0 0 0 0 0 0 0 0 0 127 0"/>
<feOffset/>
<feGaussianBlur stdDeviation="5"/>
<feColorMatrix type="matrix" values="0 0 0 0 1 0 0 0 0 0.670588 0 0 0 0 0 0 0 0 0.01 0"/>
<feBlend mode="normal" in2="BackgroundImageFix" result="effect1_dropShadow"/>
<feBlend mode="normal" in="SourceGraphic" in2="effect1_dropShadow" result="shape"/>
</filter>
<linearGradient id="paint0_linear" x1="-3.81875" y1="1.20809e-06" x2="113.43" y2="64.4153" gradientUnits="userSpaceOnUse">
<stop stop-color="#16222A"/>
<stop offset="1" stop-color="#3A6073"/>
</linearGradient>
<clipPath id="clip0">
<rect x="19" y="27" width="57" height="40" fill="white"/>
</clipPath>
</defs>
</svg>
