<svg width="94" height="94" viewBox="0 0 94 94" fill="none" xmlns="http://www.w3.org/2000/svg">
<circle cx="47" cy="47" r="47" fill="url(#paint0_linear)"/>
<path d="M70.4008 57.2H65.6008V51.6C65.596 47.6256 62.3752 44.4048 58.4008 44.4H52.0008V43.1624C53.995 41.8329 55.1951 39.5967 55.2008 37.2V34.8H56.0008C57.3227 34.8033 58.3971 33.7344 58.4004 32.4124C58.403 31.3813 57.7449 30.4644 56.7672 30.1368C56.4179 25.5516 52.5993 22.0072 48.0008 22H46.4008C41.8023 22.0072 37.9837 25.5516 37.6344 30.1368C36.3809 30.5568 35.7052 31.9133 36.1252 33.1668C36.4528 34.1445 37.3697 34.8026 38.4008 34.8H39.2008V37.2C39.2062 39.5968 40.4064 41.8331 42.4008 43.1624V44.4H36.0008C32.0264 44.4048 28.8056 47.6256 28.8008 51.6V63.6C28.8008 64.0418 29.159 64.4 29.6008 64.4H35.2008V69.2C35.2008 69.6418 35.559 70 36.0008 70H64.8008C65.2426 70 65.6008 69.6418 65.6008 69.2V64.5064L66.176 65.0048C66.4766 65.265 66.9226 65.265 67.2232 65.0048L68.5504 63.8576L69.8776 65.0048C69.9172 65.0337 69.9595 65.0586 70.004 65.0792C70.037 65.1025 70.0717 65.1231 70.108 65.1408C70.201 65.179 70.3003 65.1991 70.4008 65.2C70.511 65.1996 70.62 65.1765 70.7208 65.132C70.7415 65.1194 70.7615 65.1058 70.7808 65.0912C70.8569 65.0521 70.9261 65.0007 70.9856 64.9392C70.9912 64.932 71.0008 64.9304 71.0064 64.9232C71.0274 64.8922 71.0459 64.8596 71.0616 64.8256C71.0939 64.7792 71.1207 64.7293 71.1416 64.6768C71.1598 64.6234 71.1722 64.5681 71.1784 64.512C71.1886 64.4753 71.1961 64.4378 71.2008 64.4V58C71.2008 57.5582 70.8426 57.2 70.4008 57.2ZM59.2008 46.0568C61.9543 46.4581 63.9973 48.8174 64.0008 51.6V54H59.2008V46.0568ZM59.2008 55.6H64.0008V57.2H59.2008V55.6ZM53.6008 46H57.6008V57.2H53.6008V46ZM44.0008 24.0184V26.8C44.0008 27.2418 44.359 27.6 44.8008 27.6C45.2426 27.6 45.6008 27.2418 45.6008 26.8V23.6488C45.8663 23.6176 46.1334 23.6013 46.4008 23.6V27.6C46.4008 28.0418 46.759 28.4 47.2008 28.4C47.6426 28.4 48.0008 28.0418 48.0008 27.6V23.6C48.2682 23.6013 48.5353 23.6176 48.8008 23.6488V26.8C48.8008 27.2418 49.159 27.6 49.6008 27.6C50.0426 27.6 50.4008 27.2418 50.4008 26.8V24.0184C52.9983 24.9404 54.8438 27.2615 55.1568 30H39.2448C39.5578 27.2615 41.4033 24.9404 44.0008 24.0184ZM38.4008 33.2C37.959 33.2 37.6008 32.8418 37.6008 32.4C37.6008 31.9582 37.959 31.6 38.4008 31.6H56.0008C56.4426 31.6 56.8008 31.9582 56.8008 32.4C56.8008 32.8418 56.4426 33.2 56.0008 33.2H38.4008ZM40.8008 37.2V34.8H53.6008V37.2C53.5997 39.2014 52.5296 41.0498 50.7944 42.0472C49.947 42.5427 48.9825 42.8026 48.0008 42.8H46.4008C45.4164 42.8021 44.4496 42.5402 43.6008 42.0416C41.8689 41.0445 40.8012 39.1984 40.8008 37.2ZM50.4008 43.9896V46C50.4008 47.7673 48.9681 49.2 47.2008 49.2C45.4335 49.2 44.0008 47.7673 44.0008 46V43.988C44.1496 44.0416 44.3024 44.0848 44.4552 44.128C44.4864 44.1368 44.516 44.148 44.5464 44.16C44.814 44.229 45.0854 44.2824 45.3592 44.32C45.4248 44.3296 45.4896 44.3376 45.5552 44.3448C45.8357 44.3801 46.1181 44.3985 46.4008 44.4H48.0008C48.2832 44.3981 48.5653 44.3796 48.8456 44.3448C48.912 44.3368 48.9776 44.3288 49.0432 44.3192C49.3154 44.2813 49.5851 44.2279 49.8512 44.1592C49.8864 44.1496 49.9208 44.1368 49.956 44.1264C50.1056 44.0848 50.2552 44.0416 50.4008 43.9896ZM42.4008 46C42.4008 48.651 44.5498 50.8 47.2008 50.8C49.8518 50.8 52.0008 48.651 52.0008 46V57.2H47.2008V56.4C47.2008 55.9582 46.8426 55.6 46.4008 55.6H42.4008V46ZM41.6008 57.2H45.6008V65.2H41.6008C41.159 65.2 40.8008 64.8418 40.8008 64.4V64.2992C40.9094 64.2671 41.0163 64.2292 41.1208 64.1856C41.1688 64.168 41.2192 64.1552 41.2664 64.1352C41.4424 64.0592 41.6111 63.9674 41.7704 63.8608C41.8048 63.8376 41.8344 63.8088 41.868 63.7848C41.9894 63.6976 42.1048 63.6025 42.2136 63.5C42.2616 63.4528 42.304 63.4016 42.3496 63.352C42.4352 63.2611 42.5153 63.1652 42.5896 63.0648C42.632 63.0056 42.6696 62.9448 42.7096 62.8832C42.7741 62.7801 42.8323 62.6733 42.884 62.5632C42.9152 62.4976 42.9464 62.4328 42.9736 62.3648C43.0206 62.2412 43.0599 62.1148 43.0912 61.9864C43.1072 61.924 43.1272 61.8648 43.1392 61.8016C43.2203 61.4057 43.2203 60.9975 43.1392 60.6016C43.1272 60.5384 43.1072 60.4792 43.0912 60.4168C43.0599 60.2884 43.0206 60.162 42.9736 60.0384C42.9464 59.9704 42.9152 59.9056 42.884 59.84C42.8323 59.7299 42.7741 59.6231 42.7096 59.52C42.6712 59.4584 42.6296 59.3976 42.5896 59.3384C42.5153 59.238 42.4352 59.1421 42.3496 59.0512C42.304 59.0016 42.2616 58.9504 42.2136 58.9032C42.1048 58.8007 41.9894 58.7056 41.868 58.6184C41.8344 58.5944 41.8048 58.5656 41.7704 58.5424C41.6111 58.4358 41.4424 58.344 41.2664 58.268C41.2192 58.248 41.1688 58.2352 41.1208 58.2176C41.0163 58.174 40.9094 58.1361 40.8008 58.104V58C40.8008 57.5582 41.159 57.2 41.6008 57.2ZM36.8008 46H40.8008V55.7472C39.8453 56.085 39.205 56.9866 39.2008 58H36.8008V46ZM30.4008 51.6C30.4043 48.8174 32.4473 46.4581 35.2008 46.0568V54H30.4008V51.6ZM30.4008 62.8V55.6H35.2008V58.8C35.2008 59.2418 35.559 59.6 36.0008 59.6H40.0008C40.8845 59.6 41.6008 60.3163 41.6008 61.2C41.6008 62.0837 40.8845 62.8 40.0008 62.8H30.4008ZM57.6008 64.4V68.4H36.8008V64.4H39.2008C39.2008 65.7255 40.2753 66.8 41.6008 66.8H46.4008C46.8426 66.8 47.2008 66.4418 47.2008 66V64.5528L47.7216 65.004C48.0223 65.2647 48.4689 65.2647 48.7696 65.004L50.0896 63.8592L51.4112 65.004C51.7119 65.2647 52.1585 65.2647 52.4592 65.004L53.78 63.8592L55.1008 65.004C55.4015 65.2647 55.8481 65.2647 56.1488 65.004L57.4704 63.8592L57.6896 64.0496C57.6332 64.1579 57.6028 64.2779 57.6008 64.4ZM64.0008 68.4H59.2008V65.18C59.4297 65.2185 59.6638 65.1541 59.8408 65.004L61.1624 63.8584L62.4808 65.0048C62.7815 65.2655 63.2281 65.2655 63.5288 65.0048L64.0008 64.5952V68.4ZM69.6008 62.6512L69.0728 62.1952C68.7724 61.9355 68.3268 61.9355 68.0264 62.1952L66.7 63.3424L65.376 62.1952C65.0753 61.9345 64.6287 61.9345 64.328 62.1952L63.0048 63.3416L61.6808 62.1952C61.3801 61.9345 60.9335 61.9345 60.6328 62.1952L59.3128 63.34L57.9944 62.1952C57.6937 61.9345 57.2471 61.9345 56.9464 62.1952L55.6248 63.3408L54.304 62.196C54.0032 61.9349 53.556 61.9349 53.2552 62.196L51.9352 63.3408L50.6136 62.196C50.3129 61.9353 49.8663 61.9353 49.5656 62.196L48.2456 63.3408L47.2008 62.4352V58.8H69.6008V62.6512Z" fill="white"/>
<line x1="39" y1="54.5" x2="39" y2="51.5" stroke="#00AB28" stroke-width="2" stroke-linecap="round"/>
<line x1="56" y1="54.5" x2="56" y2="51.5" stroke="#00AB28" stroke-width="2" stroke-linecap="round"/>
<line x1="54.5" y1="32.5" x2="40.5" y2="32.5" stroke="#00AB28" stroke-linecap="round"/>
<defs>
<linearGradient id="paint0_linear" x1="-3.81875" y1="1.20809e-06" x2="113.43" y2="64.4153" gradientUnits="userSpaceOnUse">
<stop stop-color="#16222A"/>
<stop offset="1" stop-color="#3A6073"/>
</linearGradient>
</defs>
</svg>
