<svg width="44" height="44" viewBox="0 0 44 44" fill="none" xmlns="http://www.w3.org/2000/svg">
<path d="M38.8702 28.5857C38.8539 28.297 39.0551 28.0486 39.3194 28.0308H43.5166C43.7583 28.047 43.951 28.2574 43.9659 28.5212C43.9821 28.8099 43.781 29.0583 43.5166 29.0761H39.3194C39.0778 29.0599 38.8851 28.8495 38.8702 28.5857Z" fill="url(#paint0_linear)"/>
<path d="M43.1344 25.9022L39.5004 27.5149C39.2546 27.6245 38.974 27.4957 38.8736 27.2273C38.7732 26.9589 38.8912 26.6525 39.137 26.5429L42.771 24.9302C43.0168 24.8206 43.2975 24.9494 43.3978 25.2178C43.4981 25.4862 43.3802 25.7926 43.1344 25.9022Z" fill="url(#paint1_linear)"/>
<g filter="url(#filter0_d)">
<path d="M1.39853 22.2821L15.7526 17.1583V17.1683C16.2625 16.9834 16.8189 17.0276 17.2988 17.2912C17.538 17.4239 17.7511 17.6064 17.9257 17.8288L22.5608 16.1804C22.6156 15.4868 23.0348 14.8914 23.6346 14.655C23.6604 14.6425 23.6871 14.6325 23.7145 14.6252C23.9193 14.5582 24.1343 14.5367 24.3469 14.5617L23.3166 11.128C22.5232 11.2273 21.7749 10.7045 21.5251 9.87631C21.2396 8.91463 21.7195 7.88183 22.5989 7.56534L31.5548 4.37759C32.4356 4.06586 33.3816 4.58984 33.6715 5.54994V5.56184C33.9103 6.38724 33.5895 7.28267 32.9011 7.71213L37.0293 21.4688C37.8068 21.372 38.5429 21.8724 38.8063 22.6769C38.8169 22.7039 38.8254 22.7317 38.8317 22.7602C39.0926 23.7147 38.609 24.7223 37.7415 25.0315L28.7893 28.2133C27.9233 28.52 26.9909 28.0189 26.6853 27.0826C26.6748 27.0563 26.6663 27.0291 26.6599 27.0013C26.4352 26.1813 26.7583 25.3006 27.4393 24.8768L26.4091 21.4411C26.2509 21.5985 26.0657 21.7199 25.864 21.7981C25.8393 21.8097 25.8138 21.819 25.7877 21.8259C25.3897 21.9565 24.9608 21.9146 24.5903 21.7089C24.4023 21.6048 24.2345 21.462 24.0961 21.2883L19.461 22.9447C19.3977 23.8396 18.8482 24.6054 18.0674 24.8867L3.71335 30.0105C2.64788 30.3874 1.50373 29.7535 1.15324 28.5922L0.09758 25.0712C-0.244011 23.9092 0.336784 22.664 1.39853 22.2821ZM32.774 5.89113C32.7677 5.87426 32.7622 5.85701 32.7576 5.83955C32.6211 5.44024 32.22 5.22997 31.8491 5.36347L22.9524 8.53614C22.9376 8.54388 22.9236 8.553 22.9078 8.55915L22.9117 8.55062L22.8878 8.55915C22.5232 8.69513 22.3192 9.11805 22.4227 9.52321C22.4284 9.54008 22.4332 9.55733 22.4372 9.57479C22.5738 9.9741 22.9749 10.1844 23.3457 10.0509L23.4729 10.0052H23.4838L32.158 6.90676L32.1689 6.90478L32.2761 6.86709L32.3306 6.84725C32.6829 6.70215 32.8753 6.28707 32.774 5.89113ZM27.5847 26.7295C27.7117 27.1391 28.1157 27.3623 28.4932 27.2314L37.4454 24.0297C37.8206 23.8911 38.025 23.45 37.9051 23.0379C37.7766 22.6299 37.3731 22.4087 36.9966 22.54L36.8567 22.5896L28.1843 25.6901L28.0444 25.7397V25.7377C27.6692 25.8763 27.4647 26.3174 27.5847 26.7295ZM26.8634 19.5963V19.6181L28.3351 24.5296L36.0972 21.7525L31.9927 8.06522L28.9038 9.17012L24.2396 10.8304L25.7078 15.7281C25.7159 15.7507 25.7226 15.7739 25.7277 15.7975L26.8634 19.5963ZM24.6866 20.354C24.8016 20.7315 25.174 20.937 25.5206 20.8142C25.8625 20.6895 26.0504 20.2896 25.944 19.9136L24.7975 16.0891C24.6787 15.7177 24.31 15.5177 23.9671 15.6388C23.8029 15.6988 23.667 15.8271 23.5892 15.9959C23.5105 16.1617 23.4936 16.3544 23.5419 16.5335L24.6866 20.354ZM19.3084 21.9033L23.6746 20.3501L22.7352 17.2178L18.3654 18.779L19.3084 21.9033ZM1.01515 24.728C1.02242 24.748 1.0285 24.7686 1.03332 24.7895L2.07626 28.2728C2.26223 28.8821 2.86246 29.2145 3.42263 29.0187L17.7404 23.9048L17.7967 23.8849C18.3319 23.6741 18.6235 23.0443 18.4617 22.4488C18.4552 22.4299 18.4498 22.4108 18.4453 22.3912L17.3951 18.902V18.8881C17.2039 18.2844 16.6053 17.9589 16.0487 18.1561L1.73104 23.27L1.68016 23.2918C1.14497 23.5027 0.85326 24.1325 1.01515 24.728Z" fill="white"/>
</g>
<path d="M42.7729 32.1765L39.139 30.5638C38.8931 30.4542 38.7751 30.1478 38.8755 29.8794C38.9759 29.6111 39.2565 29.4822 39.5024 29.5918L43.1363 31.2045C43.3821 31.3141 43.5001 31.6205 43.3998 31.8889C43.2994 32.1573 43.0187 32.2861 42.7729 32.1765Z" fill="url(#paint2_linear)"/>
<g filter="url(#filter1_d)">
<path d="M25.3784 36.1122C25.4732 35.2486 25.8316 34.445 26.3959 33.831C27.0604 33.1023 27.9633 32.6926 28.9051 32.6924H38.2098C39.1517 32.6926 40.0546 33.1023 40.7191 33.831L40.7463 33.8627C41.2959 34.4728 41.6448 35.2646 41.7384 36.1142V36.1122C42.0162 36.199 42.2689 36.3623 42.4724 36.5863C42.7872 36.929 42.9644 37.3943 42.9648 37.8797C42.9641 38.3499 42.7975 38.8017 42.4997 39.1413L42.4706 39.175C42.1563 39.5192 41.7294 39.7127 41.2841 39.7126H25.8399C24.9125 39.7104 24.1612 38.8901 24.1592 37.8777C24.1591 37.3916 24.3364 36.9255 24.6516 36.5823C24.8535 36.3611 25.1036 36.1993 25.3784 36.1122ZM40.065 34.5947L40.0413 34.5709C39.557 34.0392 38.8986 33.7401 38.2117 33.7398H28.9051C28.2189 33.7406 27.5611 34.0397 27.0773 34.5709C26.7085 34.9726 26.459 35.4862 26.3614 36.0448L40.7572 36.0428C40.6617 35.4964 40.4209 34.9927 40.065 34.5947ZM25.8381 38.6573H41.2823C41.4706 38.6577 41.6514 38.5771 41.7856 38.4331L41.8056 38.4113C41.9299 38.266 41.9988 38.0745 41.9982 37.8757C41.9986 37.6683 41.9234 37.4691 41.7893 37.3223C41.657 37.1781 41.4783 37.0963 41.2914 37.0941H25.8363C25.6453 37.0884 25.4602 37.1662 25.3221 37.3104C25.1873 37.4569 25.1114 37.6561 25.1113 37.8638C25.1113 38.302 25.4366 38.6573 25.8381 38.6573Z" fill="white"/>
</g>
<defs>
<filter id="filter0_d" x="-4" y="0.287598" width="46.9026" height="33.8317" filterUnits="userSpaceOnUse" color-interpolation-filters="sRGB">
<feFlood flood-opacity="0" result="BackgroundImageFix"/>
<feColorMatrix in="SourceAlpha" type="matrix" values="0 0 0 0 0 0 0 0 0 0 0 0 0 0 0 0 0 0 127 0"/>
<feOffset/>
<feGaussianBlur stdDeviation="2"/>
<feColorMatrix type="matrix" values="0 0 0 0 1 0 0 0 0 1 0 0 0 0 1 0 0 0 0.7 0"/>
<feBlend mode="normal" in2="BackgroundImageFix" result="effect1_dropShadow"/>
<feBlend mode="normal" in="SourceGraphic" in2="effect1_dropShadow" result="shape"/>
</filter>
<filter id="filter1_d" x="20.1602" y="28.6924" width="26.8056" height="15.0202" filterUnits="userSpaceOnUse" color-interpolation-filters="sRGB">
<feFlood flood-opacity="0" result="BackgroundImageFix"/>
<feColorMatrix in="SourceAlpha" type="matrix" values="0 0 0 0 0 0 0 0 0 0 0 0 0 0 0 0 0 0 127 0"/>
<feOffset/>
<feGaussianBlur stdDeviation="2"/>
<feColorMatrix type="matrix" values="0 0 0 0 1 0 0 0 0 1 0 0 0 0 1 0 0 0 0.7 0"/>
<feBlend mode="normal" in2="BackgroundImageFix" result="effect1_dropShadow"/>
<feBlend mode="normal" in="SourceGraphic" in2="effect1_dropShadow" result="shape"/>
</filter>
<linearGradient id="paint0_linear" x1="44.4659" y1="27.4433" x2="43.6276" y2="30.5745" gradientUnits="userSpaceOnUse">
<stop stop-color="#FDC830"/>
<stop offset="1" stop-color="#F37335"/>
</linearGradient>
<linearGradient id="paint1_linear" x1="43.8836" y1="23.3948" x2="39.7711" y2="28.8315" gradientUnits="userSpaceOnUse">
<stop stop-color="#FDC830"/>
<stop offset="1" stop-color="#F37335"/>
</linearGradient>
<linearGradient id="paint2_linear" x1="43.8856" y1="28.0564" x2="39.773" y2="33.4932" gradientUnits="userSpaceOnUse">
<stop stop-color="#FDC830"/>
<stop offset="1" stop-color="#F37335"/>
</linearGradient>
</defs>
</svg>
