<svg width="20" height="22" viewBox="0 0 20 22" fill="none" xmlns="http://www.w3.org/2000/svg">
<path d="M17.5 9.36995C17.5 15.0737 10 19.9625 10 19.9625C10 19.9625 2.5 15.0737 2.5 9.36995C2.5 7.42503 3.29018 5.55977 4.6967 4.1845C6.10322 2.80924 8.01088 2.03662 10 2.03662C11.9891 2.03662 13.8968 2.80924 15.3033 4.1845C16.7098 5.55977 17.5 7.42503 17.5 9.36995Z" stroke="#00AB28" stroke-width="2" stroke-linecap="round" stroke-linejoin="round"/>
<path d="M10 11.8147C11.3807 11.8147 12.5 10.7203 12.5 9.37023C12.5 8.0202 11.3807 6.92578 10 6.92578C8.61929 6.92578 7.5 8.0202 7.5 9.37023C7.5 10.7203 8.61929 11.8147 10 11.8147Z" stroke="white" stroke-width="2" stroke-linecap="round" stroke-linejoin="round"/>
</svg>
