<svg width="20" height="20" viewBox="0 0 20 20" fill="none" xmlns="http://www.w3.org/2000/svg">
<path d="M15.2051 13.2307C14.5517 12.5856 13.736 12.5856 13.0867 13.2307C12.5915 13.7217 12.0962 14.2128 11.6093 14.7123C11.4761 14.8496 11.3638 14.8787 11.2014 14.7872C10.881 14.6124 10.5397 14.4709 10.2317 14.2794C8.79592 13.3763 7.59315 12.2152 6.52773 10.9084C5.99918 10.2591 5.52889 9.5641 5.20011 8.78168C5.13352 8.62353 5.14601 8.51948 5.27502 8.39047C5.77028 7.91186 6.25305 7.42076 6.73998 6.92967C7.41836 6.24713 7.41836 5.44807 6.73582 4.76137C6.34877 4.37016 5.96172 3.98727 5.57467 3.59606C5.17514 3.19653 4.77977 2.79283 4.37607 2.39746C3.72267 1.7607 2.90695 1.7607 2.25771 2.40162C1.75829 2.89271 1.27968 3.39629 0.771944 3.87906C0.301659 4.32438 0.0644358 4.86957 0.014494 5.50633C-0.0645804 6.54262 0.18929 7.52065 0.547206 8.4737C1.27968 10.4464 2.39505 12.1985 3.74764 13.805C5.57467 15.9774 7.75546 17.6963 10.3067 18.9365C11.4553 19.4942 12.6456 19.9228 13.9399 19.9936C14.8305 20.0435 15.6046 19.8188 16.2248 19.1238C16.6493 18.6493 17.1279 18.2165 17.5773 17.7629C18.2432 17.0886 18.2474 16.2729 17.5857 15.607C16.7949 14.8121 16 14.0214 15.2051 13.2307Z" fill="#00AB28"/>
<path d="M14.4098 9.9137L15.9455 9.65151C15.7042 8.24065 15.0383 6.96298 14.027 5.94749C12.9574 4.87791 11.6048 4.2037 10.1149 3.99561L9.89844 5.53964C11.0513 5.70195 12.1 6.22217 12.9282 7.05038C13.7107 7.8328 14.2226 8.82331 14.4098 9.9137Z" fill="white"/>
<path d="M16.8124 3.23789C15.0394 1.46496 12.7962 0.34543 10.3199 0L10.1035 1.54403C12.2427 1.84368 14.1821 2.81338 15.7136 4.34077C17.1661 5.79324 18.1192 7.6286 18.4646 9.64708L20.0003 9.38488C19.5966 7.04595 18.4937 4.92342 16.8124 3.23789Z" fill="white"/>
</svg>
