<svg width="41" height="41" viewBox="0 0 41 41" fill="none" xmlns="http://www.w3.org/2000/svg">
<g clip-path="url(#clip0)">
<line x1="11.6854" y1="13.2718" x2="28.6854" y2="29.2718" stroke="url(#paint0_linear)" stroke-width="2"/>
<path d="M17.2598 9.76722C14.9885 10.44 12.9451 11.8543 11.5062 13.7494C10.0198 15.707 9.23407 18.0436 9.23407 20.5065C9.23407 23.8261 10.6974 26.9551 13.249 29.0912C13.5062 29.3065 13.5402 29.6895 13.3249 29.9466C13.1095 30.2038 12.7266 30.2377 12.4694 30.0224C9.64143 27.655 8.01953 24.1865 8.01953 20.5065C8.01953 17.7761 8.8907 15.1856 10.5389 13.015C12.133 10.9155 14.3973 9.34849 16.9148 8.60273C16.9723 8.58567 17.0304 8.57758 17.0875 8.57758C17.3495 8.57758 17.5913 8.74847 17.6696 9.01265C17.7649 9.334 17.5814 9.67193 17.2598 9.76722Z" fill="white"/>
<path d="M20.4591 32.9219C18.2567 32.9219 16.0925 32.3398 14.2003 31.2386C13.9105 31.0699 13.8123 30.6982 13.9809 30.4083C14.1497 30.1183 14.5215 30.0202 14.8113 30.1889C16.5182 31.1823 18.4711 31.7073 20.4592 31.7073C26.6497 31.7073 31.686 26.6826 31.686 20.5063C31.686 14.3299 26.6497 9.30529 20.4591 9.30529C20.004 9.30529 19.5457 9.33275 19.097 9.3868C18.765 9.42676 18.4616 9.18957 18.4215 8.85661C18.3813 8.52364 18.6188 8.22119 18.9518 8.18107C19.4485 8.12117 19.9556 8.09082 20.4592 8.09082C27.3194 8.09082 32.9005 13.6603 32.9005 20.5063C32.9005 27.3523 27.3193 32.9219 20.4591 32.9219Z" fill="white"/>
<g filter="url(#filter0_d)">
<path d="M40.4204 16.6882L36.1411 20.59L40.3737 24.5424C40.5323 24.6905 40.5998 24.9119 40.5508 25.1232C40.5019 25.3346 40.344 25.5037 40.1364 25.5671L34.5973 27.2566L36.7259 32.6423C36.8056 32.8441 36.7716 33.073 36.6368 33.2429C36.502 33.4129 36.2865 33.4981 36.0721 33.4662L30.3436 32.6169L29.957 38.3952C29.9425 38.6116 29.8136 38.8039 29.6189 38.8996C29.4242 38.9953 29.1933 38.9798 29.0131 38.8591L24.2022 35.6352L21.375 40.6892C21.2691 40.8785 21.0702 40.997 20.8533 40.9999C20.6355 41.003 20.4344 40.8898 20.3234 40.7034L16.9206 34.9897L11.2146 38.4061C11.0286 38.5174 10.7971 38.5211 10.6075 38.4157C10.418 38.3102 10.299 38.1115 10.2955 37.8947L10.2031 32.1044L4.43885 32.661C4.22288 32.6818 4.01235 32.586 3.88623 32.4094C3.76019 32.2328 3.73793 32.0024 3.82777 31.805L6.22755 26.5347L0.781688 24.5655C0.57765 24.4917 0.428544 24.3147 0.390347 24.1011C0.35215 23.8875 0.430947 23.6699 0.596788 23.53L5.02502 19.7982L0.949772 15.6838C0.797063 15.5297 0.738206 15.3058 0.795382 15.0966C0.852557 14.8872 1.01696 14.7244 1.22676 14.6693L6.82741 13.197L4.91075 7.73235C4.839 7.52766 4.88184 7.30016 5.02318 7.1356C5.16452 6.97104 5.38257 6.89441 5.59614 6.9346L11.287 8.00661L11.8988 2.24788C11.9217 2.03215 12.0579 1.84501 12.2562 1.757C12.4546 1.669 12.6847 1.69342 12.8601 1.82115L17.5414 5.23014L20.5638 0.290295C20.6743 0.109642 20.8707 -6.48499e-05 21.0817 -6.48499e-05C21.087 -6.48499e-05 21.092 1.52588e-05 21.0971 1.52588e-05C21.314 0.00553894 21.5116 0.126297 21.6152 0.316883L24.3821 5.40408L29.2308 2.23771C29.4123 2.11912 29.6434 2.1063 29.8371 2.20432C30.0306 2.30226 30.1572 2.49604 30.1691 2.71274L30.4873 8.49501L36.2254 7.71392C36.4407 7.68462 36.6546 7.77238 36.7874 7.94383C36.9202 8.11528 36.9515 8.3447 36.8693 8.54546L34.6768 13.9054L40.1954 15.6606C40.4021 15.7264 40.5582 15.8974 40.6045 16.1093C40.6509 16.3214 40.5808 16.542 40.4204 16.6882ZM33.6815 14.8635C33.5199 14.8121 33.3873 14.6956 33.3154 14.542C33.2437 14.3884 33.2394 14.2119 33.3035 14.0549L35.347 9.05924L29.9989 9.7873C29.8304 9.81029 29.661 9.76184 29.5304 9.65389C29.3997 9.54595 29.32 9.38836 29.3107 9.21899L29.0142 3.82975L24.4951 6.78094C24.3532 6.87366 24.1787 6.90274 24.0145 6.86134C23.8502 6.81985 23.7106 6.71159 23.6295 6.56264L21.0507 1.82123L18.2339 6.42531C18.1454 6.56993 18.0005 6.67099 17.8342 6.70398C17.795 6.71183 17.7553 6.71568 17.7159 6.71568C17.5885 6.71568 17.4631 6.67547 17.3585 6.59908L12.9954 3.42175L12.4253 8.78897C12.4075 8.95754 12.3199 9.11097 12.1838 9.2121C12.0478 9.31324 11.8759 9.35296 11.709 9.32157L6.405 8.32252L8.19138 13.4156C8.24752 13.5756 8.23414 13.7517 8.15471 13.9014C8.07511 14.0511 7.93665 14.1608 7.77273 14.2038L2.55285 15.5761L6.35111 19.4108C6.47043 19.5313 6.53401 19.6961 6.52632 19.8654C6.51871 20.0348 6.44072 20.1933 6.31107 20.3025L2.18385 23.7808L7.25968 25.6161C7.41903 25.6738 7.547 25.7955 7.61282 25.9517C7.67848 26.1079 7.676 26.2845 7.60569 26.4389L5.36903 31.3509L10.7415 30.8321C10.9101 30.8159 11.0781 30.8708 11.2044 30.9838C11.3308 31.0967 11.4043 31.2573 11.407 31.4269L11.4931 36.8236L16.8188 33.6348C16.9572 33.552 17.123 33.5275 17.2793 33.567C17.4356 33.6066 17.57 33.7065 17.6524 33.8451L20.8286 39.1782L23.4637 34.4677C23.5465 34.3198 23.6873 34.2131 23.8521 34.1736C24.0171 34.1341 24.191 34.1653 24.3317 34.2597L28.8157 37.2645L29.1761 31.8791C29.1873 31.7099 29.2689 31.5531 29.4008 31.4468C29.5328 31.3404 29.7031 31.294 29.871 31.3189L35.2101 32.1105L33.2262 27.0909C33.1639 26.9332 33.1703 26.7567 33.2439 26.604C33.3175 26.4513 33.4516 26.3363 33.6137 26.2869L38.7763 24.7122L34.8312 21.0285C34.7073 20.9128 34.6373 20.7506 34.6384 20.5811C34.6394 20.4116 34.7112 20.2503 34.8365 20.136L38.8251 16.4994L33.6815 14.8635Z" fill="white"/>
</g>
</g>
<defs>
<filter id="filter0_d" x="-3.61914" y="-4" width="48.2377" height="49.0001" filterUnits="userSpaceOnUse" color-interpolation-filters="sRGB">
<feFlood flood-opacity="0" result="BackgroundImageFix"/>
<feColorMatrix in="SourceAlpha" type="matrix" values="0 0 0 0 0 0 0 0 0 0 0 0 0 0 0 0 0 0 127 0"/>
<feOffset/>
<feGaussianBlur stdDeviation="2"/>
<feColorMatrix type="matrix" values="0 0 0 0 1 0 0 0 0 1 0 0 0 0 1 0 0 0 0.7 0"/>
<feBlend mode="normal" in2="BackgroundImageFix" result="effect1_dropShadow"/>
<feBlend mode="normal" in="SourceGraphic" in2="effect1_dropShadow" result="shape"/>
</filter>
<linearGradient id="paint0_linear" x1="9.72054" y1="12.0241" x2="7.65774" y2="14.477" gradientUnits="userSpaceOnUse">
<stop stop-color="#FDC830"/>
<stop offset="1" stop-color="#F37335"/>
</linearGradient>
<clipPath id="clip0">
<rect width="41" height="41" transform="matrix(1 0 0 -1 0 41)" fill="white"/>
</clipPath>
</defs>
</svg>
