<svg width="43" height="43" viewBox="0 0 43 43" fill="none" xmlns="http://www.w3.org/2000/svg">
<g clip-path="url(#clip0)">
<path d="M21.125 42.25C32.792 42.25 42.25 32.792 42.25 21.125C42.25 9.45798 32.792 0 21.125 0C9.45798 0 0 9.45798 0 21.125C0 32.792 9.45798 42.25 21.125 42.25Z" fill="#59AAE7"/>
<path d="M21.1246 0C20.1908 0 19.2712 0.0613945 18.3692 0.17882C28.7343 1.52909 36.7387 10.3919 36.7387 21.125C36.7387 31.8581 28.7342 40.7209 18.3691 42.0712C19.2712 42.1886 20.1908 42.25 21.1246 42.25C32.7917 42.25 42.2496 32.7919 42.2496 21.125C42.2496 9.45806 32.7917 0 21.1246 0Z" fill="#3D9AE3"/>
<path d="M13.5889 25.6752L6.7759 22.2687C6.58916 22.1753 6.58734 21.9095 6.77277 21.8135L32.6559 8.42563C32.8461 8.32726 33.0656 8.49255 33.0236 8.70248L28.5672 30.9842C28.5355 31.1432 28.3654 31.2326 28.2163 31.1688L22.1599 28.5733C22.0874 28.5422 22.0045 28.5464 21.9354 28.5847L14.1093 32.9325C13.9392 33.027 13.73 32.9041 13.73 32.7093V25.9036C13.7301 25.8068 13.6754 25.7184 13.5889 25.6752Z" fill="#FCFCFC"/>
<path d="M16.5287 27.972L16.4863 21.1701C16.4861 21.1265 16.5086 21.0861 16.5457 21.0634L27.595 14.3135C27.7203 14.237 27.8514 14.4028 27.7479 14.507L19.3391 22.9755C19.3299 22.9849 19.322 22.9956 19.3162 23.0074L17.8779 25.8838L16.7631 28.0284C16.7033 28.1435 16.5295 28.1016 16.5287 27.972Z" fill="#D8D7DA"/>
</g>
<defs>
<clipPath id="clip0">
<rect width="42.25" height="42.25" fill="white"/>
</clipPath>
</defs>
</svg>
