<svg width="43" height="43" viewBox="0 0 43 43" fill="none" xmlns="http://www.w3.org/2000/svg">
<g clip-path="url(#clip0)">
<path d="M21.8803 0L21.8697 0C10.2219 0 0.75 9.47456 0.75 21.125C0.75 25.7461 2.23931 30.0292 4.77167 33.5069L2.13897 41.3548L10.2589 38.7591C13.5993 40.9719 17.584 42.25 21.8803 42.25C33.5281 42.25 43 32.7728 43 21.125C43 9.4772 33.5281 0 21.8803 0Z" fill="#4CAF50"/>
<path d="M34.1726 29.8312C33.6629 31.2703 31.6402 32.4639 30.0268 32.8125C28.923 33.0475 27.4812 33.235 22.6278 31.2228C16.4197 28.6508 12.4217 22.3424 12.1102 21.9331C11.8118 21.5238 9.60156 18.5927 9.60156 15.5613C9.60156 12.5298 11.141 11.0537 11.7616 10.42C12.2712 9.89977 13.1136 9.66211 13.9216 9.66211C14.183 9.66211 14.4181 9.67531 14.6293 9.68588C15.2499 9.71228 15.5615 9.74925 15.9707 10.7289C16.4804 11.9568 17.7215 14.9883 17.8694 15.2998C18.0199 15.6114 18.1704 16.0339 17.9591 16.4432C17.7611 16.8657 17.5868 17.0532 17.2752 17.4123C16.9636 17.7715 16.6679 18.0461 16.3563 18.4316C16.0711 18.767 15.7489 19.1261 16.1081 19.7467C16.4672 20.354 17.7083 22.3794 19.5356 24.006C21.8937 26.1053 23.8055 26.776 24.4894 27.0612C24.999 27.2724 25.6064 27.2223 25.9787 26.8262C26.4514 26.3165 27.035 25.4715 27.6291 24.6397C28.0516 24.043 28.585 23.969 29.1448 24.1803C29.7152 24.3783 32.7334 25.8703 33.354 26.1792C33.9745 26.4908 34.3838 26.6387 34.5343 26.9001C34.6822 27.1615 34.6822 28.3894 34.1726 29.8312Z" fill="#FAFAFA"/>
</g>
<defs>
<clipPath id="clip0">
<rect x="0.75" width="42.25" height="42.25" fill="white"/>
</clipPath>
</defs>
</svg>
